<svg width="3248" height="3300" viewBox="0 0 3248 3300" fill="none" xmlns="http://www.w3.org/2000/svg">
<rect width="3248" height="3300" fill="black"/>
<g clip-path="url(#clip0_1437_548)">
<rect x="145" y="170" width="1440" height="2960" rx="28" fill="white"/>
<rect x="145" y="170" width="1440" height="2960" fill="white"/>
<rect x="235" y="611" width="289" height="63" rx="13" stroke="#FF7F50" stroke-width="4"/>
<path d="M319.384 629.8H324.064V651.04H337.24V655H319.384V629.8ZM358.399 645.496C358.399 645.808 358.375 646.252 358.327 646.828H343.243C343.507 648.244 344.191 649.372 345.295 650.212C346.423 651.028 347.815 651.436 349.471 651.436C351.583 651.436 353.323 650.74 354.691 649.348L357.103 652.12C356.239 653.152 355.147 653.932 353.827 654.46C352.507 654.988 351.019 655.252 349.363 655.252C347.251 655.252 345.391 654.832 343.783 653.992C342.175 653.152 340.927 651.988 340.039 650.5C339.175 648.988 338.743 647.284 338.743 645.388C338.743 643.516 339.163 641.836 340.003 640.348C340.867 638.836 342.055 637.66 343.567 636.82C345.079 635.98 346.783 635.56 348.679 635.56C350.551 635.56 352.219 635.98 353.683 636.82C355.171 637.636 356.323 638.8 357.139 640.312C357.979 641.8 358.399 643.528 358.399 645.496ZM348.679 639.16C347.239 639.16 346.015 639.592 345.007 640.456C344.023 641.296 343.423 642.424 343.207 643.84H354.115C353.923 642.448 353.335 641.32 352.351 640.456C351.367 639.592 350.143 639.16 348.679 639.16ZM369.538 635.56C372.37 635.56 374.53 636.244 376.018 637.612C377.53 638.956 378.286 640.996 378.286 643.732V655H374.038V652.66C373.486 653.5 372.694 654.148 371.662 654.604C370.654 655.036 369.43 655.252 367.99 655.252C366.55 655.252 365.29 655.012 364.21 654.532C363.13 654.028 362.29 653.344 361.69 652.48C361.114 651.592 360.826 650.596 360.826 649.492C360.826 647.764 361.462 646.384 362.734 645.352C364.03 644.296 366.058 643.768 368.818 643.768H373.786V643.48C373.786 642.136 373.378 641.104 372.562 640.384C371.77 639.664 370.582 639.304 368.998 639.304C367.918 639.304 366.85 639.472 365.794 639.808C364.762 640.144 363.886 640.612 363.166 641.212L361.402 637.936C362.41 637.168 363.622 636.58 365.038 636.172C366.454 635.764 367.954 635.56 369.538 635.56ZM368.926 651.976C370.054 651.976 371.05 651.724 371.914 651.22C372.802 650.692 373.426 649.948 373.786 648.988V646.756H369.142C366.55 646.756 365.254 647.608 365.254 649.312C365.254 650.128 365.578 650.776 366.226 651.256C366.874 651.736 367.774 651.976 368.926 651.976ZM403.065 628.288V655H398.745V652.516C398.001 653.428 397.077 654.112 395.973 654.568C394.893 655.024 393.693 655.252 392.373 655.252C390.525 655.252 388.857 654.844 387.369 654.028C385.905 653.212 384.753 652.06 383.913 650.572C383.073 649.06 382.653 647.332 382.653 645.388C382.653 643.444 383.073 641.728 383.913 640.24C384.753 638.752 385.905 637.6 387.369 636.784C388.857 635.968 390.525 635.56 392.373 635.56C393.645 635.56 394.809 635.776 395.865 636.208C396.921 636.64 397.821 637.288 398.565 638.152V628.288H403.065ZM392.913 651.4C393.993 651.4 394.965 651.16 395.829 650.68C396.693 650.176 397.377 649.468 397.881 648.556C398.385 647.644 398.637 646.588 398.637 645.388C398.637 644.188 398.385 643.132 397.881 642.22C397.377 641.308 396.693 640.612 395.829 640.132C394.965 639.628 393.993 639.376 392.913 639.376C391.833 639.376 390.861 639.628 389.997 640.132C389.133 640.612 388.449 641.308 387.945 642.22C387.441 643.132 387.189 644.188 387.189 645.388C387.189 646.588 387.441 647.644 387.945 648.556C388.449 649.468 389.133 650.176 389.997 650.68C390.861 651.16 391.833 651.4 392.913 651.4ZM427.024 645.496C427.024 645.808 427 646.252 426.952 646.828H411.868C412.132 648.244 412.816 649.372 413.92 650.212C415.048 651.028 416.44 651.436 418.096 651.436C420.208 651.436 421.948 650.74 423.316 649.348L425.728 652.12C424.864 653.152 423.772 653.932 422.452 654.46C421.132 654.988 419.644 655.252 417.988 655.252C415.876 655.252 414.016 654.832 412.408 653.992C410.8 653.152 409.552 651.988 408.664 650.5C407.8 648.988 407.368 647.284 407.368 645.388C407.368 643.516 407.788 641.836 408.628 640.348C409.492 638.836 410.68 637.66 412.192 636.82C413.704 635.98 415.408 635.56 417.304 635.56C419.176 635.56 420.844 635.98 422.308 636.82C423.796 637.636 424.948 638.8 425.764 640.312C426.604 641.8 427.024 643.528 427.024 645.496ZM417.304 639.16C415.864 639.16 414.64 639.592 413.632 640.456C412.648 641.296 412.048 642.424 411.832 643.84H422.74C422.548 642.448 421.96 641.32 420.976 640.456C419.992 639.592 418.768 639.16 417.304 639.16ZM435.631 638.584C436.927 636.568 439.207 635.56 442.471 635.56V639.844C442.087 639.772 441.739 639.736 441.427 639.736C439.675 639.736 438.307 640.252 437.323 641.284C436.339 642.292 435.847 643.756 435.847 645.676V655H431.347V635.776H435.631V638.584Z" fill="#FF7F50"/>
<path d="M1140.76 1279.55C1141.45 1280.23 1141.52 1281.28 1140.95 1282.02L1140.76 1282.23L1128.47 1294.21C1127.78 1294.88 1126.7 1294.94 1125.94 1294.39L1125.72 1294.21L1119.57 1288.22C1118.81 1287.48 1118.81 1286.28 1119.57 1285.54C1120.26 1284.87 1121.34 1284.81 1122.1 1285.36L1122.32 1285.54L1127.09 1290.19L1138.02 1279.55C1138.78 1278.82 1140.01 1278.82 1140.76 1279.55Z" fill="white"/>
<rect x="235" y="755" width="289" height="63" rx="13" stroke="#FF7F50" stroke-width="4"/>
<path d="M357.24 785.896C358.632 786.352 359.736 787.12 360.552 788.2C361.368 789.256 361.776 790.576 361.776 792.16C361.776 794.344 360.936 796.036 359.256 797.236C357.576 798.412 355.128 799 351.912 799H339.384V773.8H351.192C354.168 773.8 356.46 774.388 358.068 775.564C359.676 776.716 360.48 778.312 360.48 780.352C360.48 781.6 360.192 782.704 359.616 783.664C359.04 784.624 358.248 785.368 357.24 785.896ZM344.064 777.472V784.42H350.688C352.32 784.42 353.568 784.132 354.432 783.556C355.32 782.956 355.764 782.092 355.764 780.964C355.764 779.812 355.32 778.948 354.432 778.372C353.568 777.772 352.32 777.472 350.688 777.472H344.064ZM351.624 795.328C355.248 795.328 357.06 794.116 357.06 791.692C357.06 789.268 355.248 788.056 351.624 788.056H344.064V795.328H351.624ZM374.979 799.252C373.035 799.252 371.283 798.832 369.723 797.992C368.163 797.152 366.939 795.988 366.051 794.5C365.187 792.988 364.755 791.284 364.755 789.388C364.755 787.492 365.187 785.8 366.051 784.312C366.939 782.824 368.163 781.66 369.723 780.82C371.283 779.98 373.035 779.56 374.979 779.56C376.947 779.56 378.711 779.98 380.271 780.82C381.831 781.66 383.043 782.824 383.907 784.312C384.795 785.8 385.239 787.492 385.239 789.388C385.239 791.284 384.795 792.988 383.907 794.5C383.043 795.988 381.831 797.152 380.271 797.992C378.711 798.832 376.947 799.252 374.979 799.252ZM374.979 795.4C376.635 795.4 378.003 794.848 379.083 793.744C380.163 792.64 380.703 791.188 380.703 789.388C380.703 787.588 380.163 786.136 379.083 785.032C378.003 783.928 376.635 783.376 374.979 783.376C373.323 783.376 371.955 783.928 370.875 785.032C369.819 786.136 369.291 787.588 369.291 789.388C369.291 791.188 369.819 792.64 370.875 793.744C371.955 794.848 373.323 795.4 374.979 795.4ZM395.482 799.252C393.922 799.252 392.398 799.048 390.91 798.64C389.422 798.232 388.234 797.716 387.346 797.092L389.074 793.672C389.938 794.248 390.97 794.716 392.17 795.076C393.394 795.412 394.594 795.58 395.77 795.58C398.458 795.58 399.802 794.872 399.802 793.456C399.802 792.784 399.454 792.316 398.758 792.052C398.086 791.788 396.994 791.536 395.482 791.296C393.898 791.056 392.602 790.78 391.594 790.468C390.61 790.156 389.746 789.616 389.002 788.848C388.282 788.056 387.922 786.964 387.922 785.572C387.922 783.748 388.678 782.296 390.19 781.216C391.726 780.112 393.79 779.56 396.382 779.56C397.702 779.56 399.022 779.716 400.342 780.028C401.662 780.316 402.742 780.712 403.582 781.216L401.854 784.636C400.222 783.676 398.386 783.196 396.346 783.196C395.026 783.196 394.018 783.4 393.322 783.808C392.65 784.192 392.314 784.708 392.314 785.356C392.314 786.076 392.674 786.592 393.394 786.904C394.138 787.192 395.278 787.468 396.814 787.732C398.35 787.972 399.61 788.248 400.594 788.56C401.578 788.872 402.418 789.4 403.114 790.144C403.834 790.888 404.194 791.944 404.194 793.312C404.194 795.112 403.414 796.552 401.854 797.632C400.294 798.712 398.17 799.252 395.482 799.252ZM414.009 799.252C412.449 799.252 410.925 799.048 409.437 798.64C407.949 798.232 406.761 797.716 405.873 797.092L407.601 793.672C408.465 794.248 409.497 794.716 410.697 795.076C411.921 795.412 413.121 795.58 414.297 795.58C416.985 795.58 418.329 794.872 418.329 793.456C418.329 792.784 417.981 792.316 417.285 792.052C416.613 791.788 415.521 791.536 414.009 791.296C412.425 791.056 411.129 790.78 410.121 790.468C409.137 790.156 408.273 789.616 407.529 788.848C406.809 788.056 406.449 786.964 406.449 785.572C406.449 783.748 407.205 782.296 408.717 781.216C410.253 780.112 412.317 779.56 414.909 779.56C416.229 779.56 417.549 779.716 418.869 780.028C420.189 780.316 421.269 780.712 422.109 781.216L420.381 784.636C418.749 783.676 416.913 783.196 414.873 783.196C413.553 783.196 412.545 783.4 411.849 783.808C411.177 784.192 410.841 784.708 410.841 785.356C410.841 786.076 411.201 786.592 411.921 786.904C412.665 787.192 413.805 787.468 415.341 787.732C416.877 787.972 418.137 788.248 419.121 788.56C420.105 788.872 420.945 789.4 421.641 790.144C422.361 790.888 422.721 791.944 422.721 793.312C422.721 795.112 421.941 796.552 420.381 797.632C418.821 798.712 416.697 799.252 414.009 799.252Z" fill="#FF7F50"/>
<rect x="235" y="911" width="289" height="63" rx="13" stroke="#FF7F50" stroke-width="4"/>
<path d="M324.064 933.724V941.392H336.232V945.352H324.064V955H319.384V929.8H337.78V933.724H324.064ZM341.522 935.776H346.022V955H341.522V935.776ZM343.79 932.608C342.974 932.608 342.29 932.356 341.738 931.852C341.186 931.324 340.91 930.676 340.91 929.908C340.91 929.14 341.186 928.504 341.738 928C342.29 927.472 342.974 927.208 343.79 927.208C344.606 927.208 345.29 927.46 345.842 927.964C346.394 928.444 346.67 929.056 346.67 929.8C346.67 930.592 346.394 931.264 345.842 931.816C345.314 932.344 344.63 932.608 343.79 932.608ZM371.009 935.776V952.084C371.009 958.852 367.553 962.236 360.641 962.236C358.793 962.236 357.041 961.996 355.385 961.516C353.729 961.06 352.361 960.388 351.281 959.5L353.297 956.116C354.137 956.812 355.193 957.364 356.465 957.772C357.761 958.204 359.069 958.42 360.389 958.42C362.501 958.42 364.049 957.94 365.033 956.98C366.017 956.02 366.509 954.556 366.509 952.588V951.58C365.741 952.42 364.805 953.056 363.701 953.488C362.597 953.92 361.385 954.136 360.065 954.136C358.241 954.136 356.585 953.752 355.097 952.984C353.633 952.192 352.469 951.088 351.605 949.672C350.765 948.256 350.345 946.636 350.345 944.812C350.345 942.988 350.765 941.38 351.605 939.988C352.469 938.572 353.633 937.48 355.097 936.712C356.585 935.944 358.241 935.56 360.065 935.56C361.457 935.56 362.717 935.788 363.845 936.244C364.997 936.7 365.957 937.396 366.725 938.332V935.776H371.009ZM360.749 950.32C362.453 950.32 363.845 949.816 364.925 948.808C366.029 947.776 366.581 946.444 366.581 944.812C366.581 943.204 366.029 941.896 364.925 940.888C363.845 939.88 362.453 939.376 360.749 939.376C359.021 939.376 357.605 939.88 356.501 940.888C355.421 941.896 354.881 943.204 354.881 944.812C354.881 946.444 355.421 947.776 356.501 948.808C357.605 949.816 359.021 950.32 360.749 950.32ZM387.833 935.56C390.257 935.56 392.201 936.268 393.665 937.684C395.129 939.1 395.861 941.2 395.861 943.984V955H391.361V944.56C391.361 942.88 390.965 941.62 390.173 940.78C389.381 939.916 388.253 939.484 386.789 939.484C385.133 939.484 383.825 939.988 382.865 940.996C381.905 941.98 381.425 943.408 381.425 945.28V955H376.925V928.288H381.425V938.008C382.169 937.216 383.081 936.616 384.161 936.208C385.265 935.776 386.489 935.56 387.833 935.56ZM413.125 953.956C412.597 954.388 411.949 954.712 411.181 954.928C410.437 955.144 409.645 955.252 408.805 955.252C406.693 955.252 405.061 954.7 403.909 953.596C402.757 952.492 402.181 950.884 402.181 948.772V939.52H399.013V935.92H402.181V931.528H406.681V935.92H411.829V939.52H406.681V948.664C406.681 949.6 406.909 950.32 407.365 950.824C407.821 951.304 408.481 951.544 409.345 951.544C410.353 951.544 411.193 951.28 411.865 950.752L413.125 953.956ZM434.266 945.496C434.266 945.808 434.242 946.252 434.194 946.828H419.11C419.374 948.244 420.058 949.372 421.162 950.212C422.29 951.028 423.682 951.436 425.338 951.436C427.45 951.436 429.19 950.74 430.558 949.348L432.97 952.12C432.106 953.152 431.014 953.932 429.694 954.46C428.374 954.988 426.886 955.252 425.23 955.252C423.118 955.252 421.258 954.832 419.65 953.992C418.042 953.152 416.794 951.988 415.906 950.5C415.042 948.988 414.61 947.284 414.61 945.388C414.61 943.516 415.03 941.836 415.87 940.348C416.734 938.836 417.922 937.66 419.434 936.82C420.946 935.98 422.65 935.56 424.546 935.56C426.418 935.56 428.086 935.98 429.55 936.82C431.038 937.636 432.19 938.8 433.006 940.312C433.846 941.8 434.266 943.528 434.266 945.496ZM424.546 939.16C423.106 939.16 421.882 939.592 420.874 940.456C419.89 941.296 419.29 942.424 419.074 943.84H429.982C429.79 942.448 429.202 941.32 428.218 940.456C427.234 939.592 426.01 939.16 424.546 939.16ZM442.873 938.584C444.169 936.568 446.449 935.56 449.713 935.56V939.844C449.329 939.772 448.981 939.736 448.669 939.736C446.917 939.736 445.549 940.252 444.565 941.284C443.581 942.292 443.089 943.756 443.089 945.676V955H438.589V935.776H442.873V938.584Z" fill="#FF7F50"/>
<path d="M245.262 244.735C246.156 245.626 246.238 247.021 245.506 248.003L245.262 248.285L225.08 268.396L245.262 288.507C246.156 289.398 246.238 290.792 245.506 291.775L245.262 292.056C244.368 292.947 242.969 293.028 241.983 292.299L241.7 292.056L219.738 270.17C218.844 269.279 218.762 267.885 219.494 266.902L219.738 266.621L241.7 244.735C242.684 243.755 244.279 243.755 245.262 244.735Z" fill="black"/>
<circle cx="410" cy="489" r="9" fill="#FF6400"/>
<path d="M328.416 253.104H312.288V243.6H356.208V253.104H340.08V294H328.416V253.104ZM375.347 254.688C381.347 254.688 385.955 256.128 389.171 259.008C392.387 261.84 393.995 266.136 393.995 271.896V294H383.483V289.176C381.371 292.776 377.435 294.576 371.675 294.576C368.699 294.576 366.107 294.072 363.899 293.064C361.739 292.056 360.083 290.664 358.931 288.888C357.779 287.112 357.203 285.096 357.203 282.84C357.203 279.24 358.547 276.408 361.235 274.344C363.971 272.28 368.171 271.248 373.835 271.248H382.763C382.763 268.8 382.019 266.928 380.531 265.632C379.043 264.288 376.811 263.616 373.835 263.616C371.771 263.616 369.731 263.952 367.715 264.624C365.747 265.248 364.067 266.112 362.675 267.216L358.643 259.368C360.755 257.88 363.275 256.728 366.203 255.912C369.179 255.096 372.227 254.688 375.347 254.688ZM374.483 287.016C376.403 287.016 378.107 286.584 379.595 285.72C381.083 284.808 382.139 283.488 382.763 281.76V277.8H375.059C370.451 277.8 368.147 279.312 368.147 282.336C368.147 283.776 368.699 284.928 369.803 285.792C370.955 286.608 372.515 287.016 374.483 287.016ZM444.542 255.264V287.52C444.542 294.624 442.694 299.904 438.998 303.36C435.302 306.816 429.902 308.544 422.798 308.544C419.054 308.544 415.502 308.088 412.142 307.176C408.782 306.264 405.998 304.944 403.79 303.216L408.254 295.152C409.886 296.496 411.95 297.552 414.446 298.32C416.942 299.136 419.438 299.544 421.934 299.544C425.822 299.544 428.678 298.656 430.502 296.88C432.374 295.152 433.31 292.512 433.31 288.96V287.304C430.382 290.52 426.302 292.128 421.07 292.128C417.518 292.128 414.254 291.36 411.278 289.824C408.35 288.24 406.022 286.032 404.294 283.2C402.566 280.368 401.702 277.104 401.702 273.408C401.702 269.712 402.566 266.448 404.294 263.616C406.022 260.784 408.35 258.6 411.278 257.064C414.254 255.48 417.518 254.688 421.07 254.688C426.686 254.688 430.958 256.536 433.886 260.232V255.264H444.542ZM423.302 282.912C426.278 282.912 428.702 282.048 430.574 280.32C432.494 278.544 433.454 276.24 433.454 273.408C433.454 270.576 432.494 268.296 430.574 266.568C428.702 264.792 426.278 263.904 423.302 263.904C420.326 263.904 417.878 264.792 415.958 266.568C414.038 268.296 413.078 270.576 413.078 273.408C413.078 276.24 414.038 278.544 415.958 280.32C417.878 282.048 420.326 282.912 423.302 282.912ZM468.029 294.576C464.813 294.576 461.669 294.192 458.597 293.424C455.525 292.608 453.077 291.6 451.253 290.4L454.997 282.336C456.725 283.44 458.813 284.352 461.261 285.072C463.709 285.744 466.109 286.08 468.461 286.08C473.213 286.08 475.589 284.904 475.589 282.552C475.589 281.448 474.941 280.656 473.645 280.176C472.349 279.696 470.357 279.288 467.669 278.952C464.501 278.472 461.885 277.92 459.821 277.296C457.757 276.672 455.957 275.568 454.421 273.984C452.933 272.4 452.188 270.144 452.188 267.216C452.188 264.768 452.885 262.608 454.277 260.736C455.717 258.816 457.781 257.328 460.469 256.272C463.205 255.216 466.421 254.688 470.117 254.688C472.853 254.688 475.565 255 478.253 255.624C480.989 256.2 483.245 257.016 485.021 258.072L481.277 266.064C477.869 264.144 474.149 263.184 470.117 263.184C467.717 263.184 465.917 263.52 464.717 264.192C463.517 264.864 462.917 265.728 462.917 266.784C462.917 267.984 463.565 268.824 464.861 269.304C466.157 269.784 468.221 270.24 471.053 270.672C474.221 271.2 476.813 271.776 478.829 272.4C480.845 272.976 482.597 274.056 484.085 275.64C485.573 277.224 486.317 279.432 486.317 282.264C486.317 284.664 485.597 286.8 484.157 288.672C482.717 290.544 480.605 292.008 477.821 293.064C475.085 294.072 471.821 294.576 468.029 294.576Z" fill="#FF6400"/>
<rect x="270" y="375" width="280" height="83" rx="18" fill="white" stroke="#FF7F50" stroke-width="4"/>
<path d="M366.584 422.6H354.884L352.652 428H346.676L357.908 402.8H363.668L374.936 428H368.816L366.584 422.6ZM364.748 418.172L360.752 408.524L356.756 418.172H364.748ZM375.751 402.8H381.583V423.248H394.219V428H375.751V402.8ZM406.585 402.8C408.817 402.8 410.749 403.172 412.381 403.916C414.037 404.66 415.309 405.716 416.197 407.084C417.085 408.452 417.529 410.072 417.529 411.944C417.529 413.792 417.085 415.412 416.197 416.804C415.309 418.172 414.037 419.228 412.381 419.972C410.749 420.692 408.817 421.052 406.585 421.052H401.509V428H395.677V402.8H406.585ZM406.261 416.3C408.013 416.3 409.345 415.928 410.257 415.184C411.169 414.416 411.625 413.336 411.625 411.944C411.625 410.528 411.169 409.448 410.257 408.704C409.345 407.936 408.013 407.552 406.261 407.552H401.509V416.3H406.261ZM443.005 402.8V428H437.173V417.668H425.725V428H419.893V402.8H425.725V412.736H437.173V402.8H443.005ZM463.763 422.6H452.063L449.831 428H443.855L455.087 402.8H460.847L472.115 428H465.995L463.763 422.6ZM461.927 418.172L457.931 408.524L453.935 418.172H461.927Z" fill="#FF7F50"/>
<rect x="779" y="374" width="236" height="83" rx="18" fill="white" stroke="#65FF00" stroke-width="4"/>
<path d="M814.044 428L809.184 420.98H808.896H803.82V428H797.988V402.8H808.896C811.128 402.8 813.06 403.172 814.692 403.916C816.348 404.66 817.62 405.716 818.508 407.084C819.396 408.452 819.84 410.072 819.84 411.944C819.84 413.816 819.384 415.436 818.472 416.804C817.584 418.148 816.312 419.18 814.656 419.9L820.308 428H814.044ZM813.936 411.944C813.936 410.528 813.48 409.448 812.568 408.704C811.656 407.936 810.324 407.552 808.572 407.552H803.82V416.336H808.572C810.324 416.336 811.656 415.952 812.568 415.184C813.48 414.416 813.936 413.336 813.936 411.944ZM842.173 423.32V428H822.661V402.8H841.705V407.48H828.457V412.952H840.157V417.488H828.457V423.32H842.173ZM850.845 407.48V414.14H862.509V418.82H850.845V428H845.013V402.8H864.057V407.48H850.845ZM878.163 428.432C875.547 428.432 873.183 427.868 871.071 426.74C868.983 425.612 867.339 424.064 866.139 422.096C864.963 420.104 864.375 417.872 864.375 415.4C864.375 412.928 864.963 410.708 866.139 408.74C867.339 406.748 868.983 405.188 871.071 404.06C873.183 402.932 875.547 402.368 878.163 402.368C880.779 402.368 883.131 402.932 885.219 404.06C887.307 405.188 888.951 406.748 890.151 408.74C891.351 410.708 891.951 412.928 891.951 415.4C891.951 417.872 891.351 420.104 890.151 422.096C888.951 424.064 887.307 425.612 885.219 426.74C883.131 427.868 880.779 428.432 878.163 428.432ZM878.163 423.464C879.651 423.464 880.995 423.128 882.195 422.456C883.395 421.76 884.331 420.8 885.003 419.576C885.699 418.352 886.047 416.96 886.047 415.4C886.047 413.84 885.699 412.448 885.003 411.224C884.331 410 883.395 409.052 882.195 408.38C880.995 407.684 879.651 407.336 878.163 407.336C876.675 407.336 875.331 407.684 874.131 408.38C872.931 409.052 871.983 410 871.287 411.224C870.615 412.448 870.279 413.84 870.279 415.4C870.279 416.96 870.615 418.352 871.287 419.576C871.983 420.8 872.931 421.76 874.131 422.456C875.331 423.128 876.675 423.464 878.163 423.464ZM910.59 428L905.73 420.98H905.442H900.366V428H894.534V402.8H905.442C907.674 402.8 909.606 403.172 911.238 403.916C912.894 404.66 914.166 405.716 915.054 407.084C915.942 408.452 916.386 410.072 916.386 411.944C916.386 413.816 915.93 415.436 915.018 416.804C914.13 418.148 912.858 419.18 911.202 419.9L916.854 428H910.59ZM910.482 411.944C910.482 410.528 910.026 409.448 909.114 408.704C908.202 407.936 906.87 407.552 905.118 407.552H900.366V416.336H905.118C906.87 416.336 908.202 415.952 909.114 415.184C910.026 414.416 910.482 413.336 910.482 411.944ZM942.139 428L942.103 412.88L934.687 425.336H932.059L924.679 413.204V428H919.207V402.8H924.031L933.463 418.46L942.751 402.8H947.539L947.611 428H942.139ZM971.302 423.32V428H951.79V402.8H970.834V407.48H957.586V412.952H969.286V417.488H957.586V423.32H971.302ZM990.198 428L985.338 420.98H985.05H979.974V428H974.142V402.8H985.05C987.282 402.8 989.214 403.172 990.846 403.916C992.502 404.66 993.774 405.716 994.662 407.084C995.55 408.452 995.994 410.072 995.994 411.944C995.994 413.816 995.538 415.436 994.626 416.804C993.738 418.148 992.466 419.18 990.81 419.9L996.462 428H990.198ZM990.09 411.944C990.09 410.528 989.634 409.448 988.722 408.704C987.81 407.936 986.478 407.552 984.726 407.552H979.974V416.336H984.726C986.478 416.336 987.81 415.952 988.722 415.184C989.634 414.416 990.09 413.336 990.09 411.944Z" fill="#65FF00"/>
<rect x="1233" y="374" width="280" height="83" rx="18" fill="white" stroke="#0026FF" stroke-width="4"/>
<path d="M1258.9 402.8C1261.13 402.8 1263.06 403.172 1264.69 403.916C1266.35 404.66 1267.62 405.716 1268.51 407.084C1269.4 408.452 1269.84 410.072 1269.84 411.944C1269.84 413.792 1269.4 415.412 1268.51 416.804C1267.62 418.172 1266.35 419.228 1264.69 419.972C1263.06 420.692 1261.13 421.052 1258.9 421.052H1253.82V428H1247.99V402.8H1258.9ZM1258.57 416.3C1260.32 416.3 1261.66 415.928 1262.57 415.184C1263.48 414.416 1263.94 413.336 1263.94 411.944C1263.94 410.528 1263.48 409.448 1262.57 408.704C1261.66 407.936 1260.32 407.552 1258.57 407.552H1253.82V416.3H1258.57ZM1291.72 423.32V428H1272.2V402.8H1291.25V407.48H1278V412.952H1289.7V417.488H1278V423.32H1291.72ZM1311.15 422.6H1299.45L1297.22 428H1291.24L1302.48 402.8H1308.24L1319.5 428H1313.38L1311.15 422.6ZM1309.32 418.172L1305.32 408.524L1301.32 418.172H1309.32ZM1332.03 428.432C1329.46 428.432 1327.13 427.88 1325.04 426.776C1322.98 425.648 1321.35 424.1 1320.15 422.132C1318.97 420.14 1318.38 417.896 1318.38 415.4C1318.38 412.904 1318.97 410.672 1320.15 408.704C1321.35 406.712 1322.98 405.164 1325.04 404.06C1327.13 402.932 1329.47 402.368 1332.06 402.368C1334.25 402.368 1336.21 402.752 1337.97 403.52C1339.74 404.288 1341.23 405.392 1342.43 406.832L1338.69 410.288C1336.98 408.32 1334.87 407.336 1332.35 407.336C1330.79 407.336 1329.4 407.684 1328.17 408.38C1326.95 409.052 1325.99 410 1325.29 411.224C1324.62 412.448 1324.29 413.84 1324.29 415.4C1324.29 416.96 1324.62 418.352 1325.29 419.576C1325.99 420.8 1326.95 421.76 1328.17 422.456C1329.4 423.128 1330.79 423.464 1332.35 423.464C1334.87 423.464 1336.98 422.468 1338.69 420.476L1342.43 423.932C1341.23 425.396 1339.74 426.512 1337.97 427.28C1336.19 428.048 1334.21 428.432 1332.03 428.432ZM1364.08 423.32V428H1344.57V402.8H1363.61V407.48H1350.37V412.952H1362.07V417.488H1350.37V423.32H1364.08ZM1389.85 428L1389.82 412.88L1382.4 425.336H1379.77L1372.39 413.204V428H1366.92V402.8H1371.75L1381.18 418.46L1390.47 402.8H1395.25L1395.33 428H1389.85ZM1416.1 422.6H1404.4L1402.17 428H1396.19L1407.42 402.8H1413.18L1424.45 428H1418.33L1416.1 422.6ZM1414.26 418.172L1410.27 408.524L1406.27 418.172H1414.26ZM1434.45 418.1L1431.06 421.628V428H1425.27V402.8H1431.06V414.572L1442.22 402.8H1448.7L1438.26 414.032L1449.31 428H1442.51L1434.45 418.1ZM1469.63 423.32V428H1450.12V402.8H1469.16V407.48H1455.91V412.952H1467.61V417.488H1455.91V423.32H1469.63ZM1488.52 428L1483.66 420.98H1483.38H1478.3V428H1472.47V402.8H1483.38C1485.61 402.8 1487.54 403.172 1489.17 403.916C1490.83 404.66 1492.1 405.716 1492.99 407.084C1493.88 408.452 1494.32 410.072 1494.32 411.944C1494.32 413.816 1493.86 415.436 1492.95 416.804C1492.06 418.148 1490.79 419.18 1489.14 419.9L1494.79 428H1488.52ZM1488.42 411.944C1488.42 410.528 1487.96 409.448 1487.05 408.704C1486.14 407.936 1484.8 407.552 1483.05 407.552H1478.3V416.336H1483.05C1484.8 416.336 1486.14 415.952 1487.05 415.184C1487.96 414.416 1488.42 413.336 1488.42 411.944Z" fill="#0026FF"/>
<path d="M1398.87 979.786H1412.91V977.479C1412.91 973.355 1416.24 970 1420.33 970H1433.67C1437.76 970 1441.09 973.355 1441.09 977.479V979.786H1455.13C1456.17 979.786 1457 980.625 1457 981.674C1457 982.722 1456.17 983.561 1455.13 983.561H1451.74V1027.91C1451.74 1033.47 1447.25 1038 1441.73 1038H1412.27C1406.75 1038 1402.26 1033.47 1402.26 1027.91V983.561H1398.87C1397.83 983.561 1397 982.722 1397 981.674C1397 980.625 1397.83 979.786 1398.87 979.786ZM1437.35 977.479C1437.35 975.438 1435.7 973.775 1433.67 973.775H1420.33C1418.3 973.775 1416.65 975.438 1416.65 977.479V979.786H1437.35V977.479ZM1406 1027.91C1406 1031.39 1408.82 1034.23 1412.27 1034.23H1441.73C1445.18 1034.23 1448 1031.39 1448 1027.91V983.561H1405.99V1027.91H1406Z" fill="white"/>
<path d="M1427 1027.46C1425.96 1027.46 1425.13 1026.62 1425.13 1025.57V992.215C1425.13 991.167 1425.96 990.328 1427 990.328C1428.04 990.328 1428.87 991.167 1428.87 992.215V1025.56C1428.87 1026.61 1428.04 1027.46 1427 1027.46Z" fill="white"/>
<path d="M1439.22 1025.38C1438.18 1025.38 1437.35 1024.54 1437.35 1023.49V994.284C1437.35 993.235 1438.18 992.396 1439.22 992.396C1440.26 992.396 1441.09 993.235 1441.09 994.284V1023.49C1441.09 1024.54 1440.25 1025.38 1439.22 1025.38Z" fill="white"/>
<path d="M1414.78 1025.38C1413.74 1025.38 1412.91 1024.54 1412.91 1023.49V994.284C1412.91 993.235 1413.74 992.396 1414.78 992.396C1415.82 992.396 1416.65 993.235 1416.65 994.284V1023.49C1416.65 1024.54 1415.82 1025.38 1414.78 1025.38Z" fill="white"/>
<path d="M1240 611H1495C1502.18 611 1508 616.82 1508 624V661C1508 668.18 1502.18 674 1495 674H1240C1232.82 674 1227 668.18 1227 661V624C1227 616.82 1232.82 611 1240 611Z" stroke="#FF6400" stroke-width="4"/>
<path d="M1246 755H1495C1502.18 755 1508 760.82 1508 768V805C1508 812.18 1502.18 818 1495 818H1246C1238.82 818 1233 812.18 1233 805V768C1233 760.82 1238.82 755 1246 755Z" stroke="#FF6400" stroke-width="4"/>
<path d="M1246 911H1495C1502.18 911 1508 916.82 1508 924V961C1508 968.18 1502.18 974 1495 974H1246C1238.82 974 1233 968.18 1233 961V924C1233 916.82 1238.82 911 1246 911Z" stroke="#FF6400" stroke-width="4"/>
<path d="M1317.2 655.36C1315.25 655.36 1313.37 655.084 1311.54 654.532C1309.74 653.98 1308.32 653.248 1307.26 652.336L1308.88 648.7C1309.91 649.516 1311.17 650.188 1312.66 650.716C1314.17 651.22 1315.68 651.472 1317.2 651.472C1319.07 651.472 1320.46 651.172 1321.37 650.572C1322.31 649.972 1322.78 649.18 1322.78 648.196C1322.78 647.476 1322.51 646.888 1321.98 646.432C1321.48 645.952 1320.83 645.58 1320.04 645.316C1319.25 645.052 1318.17 644.752 1316.8 644.416C1314.88 643.96 1313.32 643.504 1312.12 643.048C1310.94 642.592 1309.92 641.884 1309.06 640.924C1308.22 639.94 1307.8 638.62 1307.8 636.964C1307.8 635.572 1308.17 634.312 1308.92 633.184C1309.68 632.032 1310.82 631.12 1312.34 630.448C1313.87 629.776 1315.74 629.44 1317.95 629.44C1319.49 629.44 1321 629.632 1322.49 630.016C1323.98 630.4 1325.26 630.952 1326.34 631.672L1324.86 635.308C1323.76 634.66 1322.61 634.168 1321.41 633.832C1320.21 633.496 1319.04 633.328 1317.92 633.328C1316.07 633.328 1314.69 633.64 1313.78 634.264C1312.89 634.888 1312.44 635.716 1312.44 636.748C1312.44 637.468 1312.7 638.056 1313.2 638.512C1313.73 638.968 1314.39 639.328 1315.18 639.592C1315.97 639.856 1317.05 640.156 1318.42 640.492C1320.29 640.924 1321.83 641.38 1323.03 641.86C1324.23 642.316 1325.25 643.024 1326.09 643.984C1326.95 644.944 1327.38 646.24 1327.38 647.872C1327.38 649.264 1327 650.524 1326.23 651.652C1325.49 652.78 1324.35 653.68 1322.81 654.352C1321.28 655.024 1319.4 655.36 1317.2 655.36ZM1349.66 645.496C1349.66 645.808 1349.64 646.252 1349.59 646.828H1334.51C1334.77 648.244 1335.46 649.372 1336.56 650.212C1337.69 651.028 1339.08 651.436 1340.74 651.436C1342.85 651.436 1344.59 650.74 1345.96 649.348L1348.37 652.12C1347.5 653.152 1346.41 653.932 1345.09 654.46C1343.77 654.988 1342.28 655.252 1340.63 655.252C1338.52 655.252 1336.66 654.832 1335.05 653.992C1333.44 653.152 1332.19 651.988 1331.3 650.5C1330.44 648.988 1330.01 647.284 1330.01 645.388C1330.01 643.516 1330.43 641.836 1331.27 640.348C1332.13 638.836 1333.32 637.66 1334.83 636.82C1336.34 635.98 1338.05 635.56 1339.94 635.56C1341.82 635.56 1343.48 635.98 1344.95 636.82C1346.44 637.636 1347.59 638.8 1348.4 640.312C1349.24 641.8 1349.66 643.528 1349.66 645.496ZM1339.94 639.16C1338.5 639.16 1337.28 639.592 1336.27 640.456C1335.29 641.296 1334.69 642.424 1334.47 643.84H1345.38C1345.19 642.448 1344.6 641.32 1343.62 640.456C1342.63 639.592 1341.41 639.16 1339.94 639.16ZM1353.99 628.288H1358.49V655H1353.99V628.288ZM1382.47 645.496C1382.47 645.808 1382.44 646.252 1382.39 646.828H1367.31C1367.57 648.244 1368.26 649.372 1369.36 650.212C1370.49 651.028 1371.88 651.436 1373.54 651.436C1375.65 651.436 1377.39 650.74 1378.76 649.348L1381.17 652.12C1380.31 653.152 1379.21 653.932 1377.89 654.46C1376.57 654.988 1375.09 655.252 1373.43 655.252C1371.32 655.252 1369.46 654.832 1367.85 653.992C1366.24 653.152 1364.99 651.988 1364.11 650.5C1363.24 648.988 1362.81 647.284 1362.81 645.388C1362.81 643.516 1363.23 641.836 1364.07 640.348C1364.93 638.836 1366.12 637.66 1367.63 636.82C1369.15 635.98 1370.85 635.56 1372.75 635.56C1374.62 635.56 1376.29 635.98 1377.75 636.82C1379.24 637.636 1380.39 638.8 1381.21 640.312C1382.05 641.8 1382.47 643.528 1382.47 645.496ZM1372.75 639.16C1371.31 639.16 1370.08 639.592 1369.07 640.456C1368.09 641.296 1367.49 642.424 1367.27 643.84H1378.18C1377.99 642.448 1377.4 641.32 1376.42 640.456C1375.43 639.592 1374.21 639.16 1372.75 639.16ZM1395.61 655.252C1393.62 655.252 1391.83 654.832 1390.24 653.992C1388.66 653.152 1387.42 651.988 1386.54 650.5C1385.65 648.988 1385.2 647.284 1385.2 645.388C1385.2 643.492 1385.65 641.8 1386.54 640.312C1387.42 638.824 1388.65 637.66 1390.21 636.82C1391.79 635.98 1393.59 635.56 1395.61 635.56C1397.5 635.56 1399.16 635.944 1400.58 636.712C1402.02 637.48 1403.1 638.584 1403.82 640.024L1400.36 642.04C1399.81 641.152 1399.11 640.492 1398.27 640.06C1397.46 639.604 1396.56 639.376 1395.57 639.376C1393.89 639.376 1392.5 639.928 1391.4 641.032C1390.29 642.112 1389.74 643.564 1389.74 645.388C1389.74 647.212 1390.28 648.676 1391.36 649.78C1392.46 650.86 1393.87 651.4 1395.57 651.4C1396.56 651.4 1397.46 651.184 1398.27 650.752C1399.11 650.296 1399.81 649.624 1400.36 648.736L1403.82 650.752C1403.07 652.192 1401.98 653.308 1400.54 654.1C1399.12 654.868 1397.48 655.252 1395.61 655.252ZM1419.51 653.956C1418.98 654.388 1418.33 654.712 1417.56 654.928C1416.82 655.144 1416.03 655.252 1415.19 655.252C1413.08 655.252 1411.44 654.7 1410.29 653.596C1409.14 652.492 1408.56 650.884 1408.56 648.772V639.52H1405.4V635.92H1408.56V631.528H1413.06V635.92H1418.21V639.52H1413.06V648.664C1413.06 649.6 1413.29 650.32 1413.75 650.824C1414.2 651.304 1414.86 651.544 1415.73 651.544C1416.74 651.544 1417.58 651.28 1418.25 650.752L1419.51 653.956Z" fill="#FF6400"/>
<path d="M1317.2 799.36C1315.25 799.36 1313.37 799.084 1311.54 798.532C1309.74 797.98 1308.32 797.248 1307.26 796.336L1308.88 792.7C1309.91 793.516 1311.17 794.188 1312.66 794.716C1314.17 795.22 1315.68 795.472 1317.2 795.472C1319.07 795.472 1320.46 795.172 1321.37 794.572C1322.31 793.972 1322.78 793.18 1322.78 792.196C1322.78 791.476 1322.51 790.888 1321.98 790.432C1321.48 789.952 1320.83 789.58 1320.04 789.316C1319.25 789.052 1318.17 788.752 1316.8 788.416C1314.88 787.96 1313.32 787.504 1312.12 787.048C1310.94 786.592 1309.92 785.884 1309.06 784.924C1308.22 783.94 1307.8 782.62 1307.8 780.964C1307.8 779.572 1308.17 778.312 1308.92 777.184C1309.68 776.032 1310.82 775.12 1312.34 774.448C1313.87 773.776 1315.74 773.44 1317.95 773.44C1319.49 773.44 1321 773.632 1322.49 774.016C1323.98 774.4 1325.26 774.952 1326.34 775.672L1324.86 779.308C1323.76 778.66 1322.61 778.168 1321.41 777.832C1320.21 777.496 1319.04 777.328 1317.92 777.328C1316.07 777.328 1314.69 777.64 1313.78 778.264C1312.89 778.888 1312.44 779.716 1312.44 780.748C1312.44 781.468 1312.7 782.056 1313.2 782.512C1313.73 782.968 1314.39 783.328 1315.18 783.592C1315.97 783.856 1317.05 784.156 1318.42 784.492C1320.29 784.924 1321.83 785.38 1323.03 785.86C1324.23 786.316 1325.25 787.024 1326.09 787.984C1326.95 788.944 1327.38 790.24 1327.38 791.872C1327.38 793.264 1327 794.524 1326.23 795.652C1325.49 796.78 1324.35 797.68 1322.81 798.352C1321.28 799.024 1319.4 799.36 1317.2 799.36ZM1349.66 789.496C1349.66 789.808 1349.64 790.252 1349.59 790.828H1334.51C1334.77 792.244 1335.46 793.372 1336.56 794.212C1337.69 795.028 1339.08 795.436 1340.74 795.436C1342.85 795.436 1344.59 794.74 1345.96 793.348L1348.37 796.12C1347.5 797.152 1346.41 797.932 1345.09 798.46C1343.77 798.988 1342.28 799.252 1340.63 799.252C1338.52 799.252 1336.66 798.832 1335.05 797.992C1333.44 797.152 1332.19 795.988 1331.3 794.5C1330.44 792.988 1330.01 791.284 1330.01 789.388C1330.01 787.516 1330.43 785.836 1331.27 784.348C1332.13 782.836 1333.32 781.66 1334.83 780.82C1336.34 779.98 1338.05 779.56 1339.94 779.56C1341.82 779.56 1343.48 779.98 1344.95 780.82C1346.44 781.636 1347.59 782.8 1348.4 784.312C1349.24 785.8 1349.66 787.528 1349.66 789.496ZM1339.94 783.16C1338.5 783.16 1337.28 783.592 1336.27 784.456C1335.29 785.296 1334.69 786.424 1334.47 787.84H1345.38C1345.19 786.448 1344.6 785.32 1343.62 784.456C1342.63 783.592 1341.41 783.16 1339.94 783.16ZM1353.99 772.288H1358.49V799H1353.99V772.288ZM1382.47 789.496C1382.47 789.808 1382.44 790.252 1382.39 790.828H1367.31C1367.57 792.244 1368.26 793.372 1369.36 794.212C1370.49 795.028 1371.88 795.436 1373.54 795.436C1375.65 795.436 1377.39 794.74 1378.76 793.348L1381.17 796.12C1380.31 797.152 1379.21 797.932 1377.89 798.46C1376.57 798.988 1375.09 799.252 1373.43 799.252C1371.32 799.252 1369.46 798.832 1367.85 797.992C1366.24 797.152 1364.99 795.988 1364.11 794.5C1363.24 792.988 1362.81 791.284 1362.81 789.388C1362.81 787.516 1363.23 785.836 1364.07 784.348C1364.93 782.836 1366.12 781.66 1367.63 780.82C1369.15 779.98 1370.85 779.56 1372.75 779.56C1374.62 779.56 1376.29 779.98 1377.75 780.82C1379.24 781.636 1380.39 782.8 1381.21 784.312C1382.05 785.8 1382.47 787.528 1382.47 789.496ZM1372.75 783.16C1371.31 783.16 1370.08 783.592 1369.07 784.456C1368.09 785.296 1367.49 786.424 1367.27 787.84H1378.18C1377.99 786.448 1377.4 785.32 1376.42 784.456C1375.43 783.592 1374.21 783.16 1372.75 783.16ZM1395.61 799.252C1393.62 799.252 1391.83 798.832 1390.24 797.992C1388.66 797.152 1387.42 795.988 1386.54 794.5C1385.65 792.988 1385.2 791.284 1385.2 789.388C1385.2 787.492 1385.65 785.8 1386.54 784.312C1387.42 782.824 1388.65 781.66 1390.21 780.82C1391.79 779.98 1393.59 779.56 1395.61 779.56C1397.5 779.56 1399.16 779.944 1400.58 780.712C1402.02 781.48 1403.1 782.584 1403.82 784.024L1400.36 786.04C1399.81 785.152 1399.11 784.492 1398.27 784.06C1397.46 783.604 1396.56 783.376 1395.57 783.376C1393.89 783.376 1392.5 783.928 1391.4 785.032C1390.29 786.112 1389.74 787.564 1389.74 789.388C1389.74 791.212 1390.28 792.676 1391.36 793.78C1392.46 794.86 1393.87 795.4 1395.57 795.4C1396.56 795.4 1397.46 795.184 1398.27 794.752C1399.11 794.296 1399.81 793.624 1400.36 792.736L1403.82 794.752C1403.07 796.192 1401.98 797.308 1400.54 798.1C1399.12 798.868 1397.48 799.252 1395.61 799.252ZM1419.51 797.956C1418.98 798.388 1418.33 798.712 1417.56 798.928C1416.82 799.144 1416.03 799.252 1415.19 799.252C1413.08 799.252 1411.44 798.7 1410.29 797.596C1409.14 796.492 1408.56 794.884 1408.56 792.772V783.52H1405.4V779.92H1408.56V775.528H1413.06V779.92H1418.21V783.52H1413.06V792.664C1413.06 793.6 1413.29 794.32 1413.75 794.824C1414.2 795.304 1414.86 795.544 1415.73 795.544C1416.74 795.544 1417.58 795.28 1418.25 794.752L1419.51 797.956Z" fill="#FF6400"/>
<path d="M1322.2 955.36C1320.25 955.36 1318.37 955.084 1316.54 954.532C1314.74 953.98 1313.32 953.248 1312.26 952.336L1313.88 948.7C1314.91 949.516 1316.17 950.188 1317.66 950.716C1319.17 951.22 1320.68 951.472 1322.2 951.472C1324.07 951.472 1325.46 951.172 1326.37 950.572C1327.31 949.972 1327.78 949.18 1327.78 948.196C1327.78 947.476 1327.51 946.888 1326.98 946.432C1326.48 945.952 1325.83 945.58 1325.04 945.316C1324.25 945.052 1323.17 944.752 1321.8 944.416C1319.88 943.96 1318.32 943.504 1317.12 943.048C1315.94 942.592 1314.92 941.884 1314.06 940.924C1313.22 939.94 1312.8 938.62 1312.8 936.964C1312.8 935.572 1313.17 934.312 1313.92 933.184C1314.68 932.032 1315.82 931.12 1317.34 930.448C1318.87 929.776 1320.74 929.44 1322.95 929.44C1324.49 929.44 1326 929.632 1327.49 930.016C1328.98 930.4 1330.26 930.952 1331.34 931.672L1329.86 935.308C1328.76 934.66 1327.61 934.168 1326.41 933.832C1325.21 933.496 1324.04 933.328 1322.92 933.328C1321.07 933.328 1319.69 933.64 1318.78 934.264C1317.89 934.888 1317.44 935.716 1317.44 936.748C1317.44 937.468 1317.7 938.056 1318.2 938.512C1318.73 938.968 1319.39 939.328 1320.18 939.592C1320.97 939.856 1322.05 940.156 1323.42 940.492C1325.29 940.924 1326.83 941.38 1328.03 941.86C1329.23 942.316 1330.25 943.024 1331.09 943.984C1331.95 944.944 1332.38 946.24 1332.38 947.872C1332.38 949.264 1332 950.524 1331.23 951.652C1330.49 952.78 1329.35 953.68 1327.81 954.352C1326.28 955.024 1324.4 955.36 1322.2 955.36ZM1354.66 945.496C1354.66 945.808 1354.64 946.252 1354.59 946.828H1339.51C1339.77 948.244 1340.46 949.372 1341.56 950.212C1342.69 951.028 1344.08 951.436 1345.74 951.436C1347.85 951.436 1349.59 950.74 1350.96 949.348L1353.37 952.12C1352.5 953.152 1351.41 953.932 1350.09 954.46C1348.77 954.988 1347.28 955.252 1345.63 955.252C1343.52 955.252 1341.66 954.832 1340.05 953.992C1338.44 953.152 1337.19 951.988 1336.3 950.5C1335.44 948.988 1335.01 947.284 1335.01 945.388C1335.01 943.516 1335.43 941.836 1336.27 940.348C1337.13 938.836 1338.32 937.66 1339.83 936.82C1341.34 935.98 1343.05 935.56 1344.94 935.56C1346.82 935.56 1348.48 935.98 1349.95 936.82C1351.44 937.636 1352.59 938.8 1353.4 940.312C1354.24 941.8 1354.66 943.528 1354.66 945.496ZM1344.94 939.16C1343.5 939.16 1342.28 939.592 1341.27 940.456C1340.29 941.296 1339.69 942.424 1339.47 943.84H1350.38C1350.19 942.448 1349.6 941.32 1348.62 940.456C1347.63 939.592 1346.41 939.16 1344.94 939.16ZM1358.99 928.288H1363.49V955H1358.99V928.288ZM1387.47 945.496C1387.47 945.808 1387.44 946.252 1387.39 946.828H1372.31C1372.57 948.244 1373.26 949.372 1374.36 950.212C1375.49 951.028 1376.88 951.436 1378.54 951.436C1380.65 951.436 1382.39 950.74 1383.76 949.348L1386.17 952.12C1385.31 953.152 1384.21 953.932 1382.89 954.46C1381.57 954.988 1380.09 955.252 1378.43 955.252C1376.32 955.252 1374.46 954.832 1372.85 953.992C1371.24 953.152 1369.99 951.988 1369.11 950.5C1368.24 948.988 1367.81 947.284 1367.81 945.388C1367.81 943.516 1368.23 941.836 1369.07 940.348C1369.93 938.836 1371.12 937.66 1372.63 936.82C1374.15 935.98 1375.85 935.56 1377.75 935.56C1379.62 935.56 1381.29 935.98 1382.75 936.82C1384.24 937.636 1385.39 938.8 1386.21 940.312C1387.05 941.8 1387.47 943.528 1387.47 945.496ZM1377.75 939.16C1376.31 939.16 1375.08 939.592 1374.07 940.456C1373.09 941.296 1372.49 942.424 1372.27 943.84H1383.18C1382.99 942.448 1382.4 941.32 1381.42 940.456C1380.43 939.592 1379.21 939.16 1377.75 939.16ZM1400.61 955.252C1398.62 955.252 1396.83 954.832 1395.24 953.992C1393.66 953.152 1392.42 951.988 1391.54 950.5C1390.65 948.988 1390.2 947.284 1390.2 945.388C1390.2 943.492 1390.65 941.8 1391.54 940.312C1392.42 938.824 1393.65 937.66 1395.21 936.82C1396.79 935.98 1398.59 935.56 1400.61 935.56C1402.5 935.56 1404.16 935.944 1405.58 936.712C1407.02 937.48 1408.1 938.584 1408.82 940.024L1405.36 942.04C1404.81 941.152 1404.11 940.492 1403.27 940.06C1402.46 939.604 1401.56 939.376 1400.57 939.376C1398.89 939.376 1397.5 939.928 1396.4 941.032C1395.29 942.112 1394.74 943.564 1394.74 945.388C1394.74 947.212 1395.28 948.676 1396.36 949.78C1397.46 950.86 1398.87 951.4 1400.57 951.4C1401.56 951.4 1402.46 951.184 1403.27 950.752C1404.11 950.296 1404.81 949.624 1405.36 948.736L1408.82 950.752C1408.07 952.192 1406.98 953.308 1405.54 954.1C1404.12 954.868 1402.48 955.252 1400.61 955.252ZM1424.51 953.956C1423.98 954.388 1423.33 954.712 1422.56 954.928C1421.82 955.144 1421.03 955.252 1420.19 955.252C1418.08 955.252 1416.44 954.7 1415.29 953.596C1414.14 952.492 1413.56 950.884 1413.56 948.772V939.52H1410.4V935.92H1413.56V931.528H1418.06V935.92H1423.21V939.52H1418.06V948.664C1418.06 949.6 1418.29 950.32 1418.75 950.824C1419.2 951.304 1419.86 951.544 1420.73 951.544C1421.74 951.544 1422.58 951.28 1423.25 950.752L1424.51 953.956Z" fill="#FF6400"/>
</g>
<g clip-path="url(#clip1_1437_548)">
<rect x="1681" y="170" width="1440" height="2960" rx="28" fill="#312E2E"/>
<rect x="1681" y="170" width="1440" height="2960" fill="#312E2E"/>
<rect x="1771" y="611" width="289" height="63" rx="13" stroke="#FF7F50" stroke-width="4"/>
<path d="M1855.38 629.8H1860.06V651.04H1873.24V655H1855.38V629.8ZM1894.4 645.496C1894.4 645.808 1894.38 646.252 1894.33 646.828H1879.24C1879.51 648.244 1880.19 649.372 1881.3 650.212C1882.42 651.028 1883.82 651.436 1885.47 651.436C1887.58 651.436 1889.32 650.74 1890.69 649.348L1893.1 652.12C1892.24 653.152 1891.15 653.932 1889.83 654.46C1888.51 654.988 1887.02 655.252 1885.36 655.252C1883.25 655.252 1881.39 654.832 1879.78 653.992C1878.18 653.152 1876.93 651.988 1876.04 650.5C1875.18 648.988 1874.74 647.284 1874.74 645.388C1874.74 643.516 1875.16 641.836 1876 640.348C1876.87 638.836 1878.06 637.66 1879.57 636.82C1881.08 635.98 1882.78 635.56 1884.68 635.56C1886.55 635.56 1888.22 635.98 1889.68 636.82C1891.17 637.636 1892.32 638.8 1893.14 640.312C1893.98 641.8 1894.4 643.528 1894.4 645.496ZM1884.68 639.16C1883.24 639.16 1882.02 639.592 1881.01 640.456C1880.02 641.296 1879.42 642.424 1879.21 643.84H1890.12C1889.92 642.448 1889.34 641.32 1888.35 640.456C1887.37 639.592 1886.14 639.16 1884.68 639.16ZM1905.54 635.56C1908.37 635.56 1910.53 636.244 1912.02 637.612C1913.53 638.956 1914.29 640.996 1914.29 643.732V655H1910.04V652.66C1909.49 653.5 1908.69 654.148 1907.66 654.604C1906.65 655.036 1905.43 655.252 1903.99 655.252C1902.55 655.252 1901.29 655.012 1900.21 654.532C1899.13 654.028 1898.29 653.344 1897.69 652.48C1897.11 651.592 1896.83 650.596 1896.83 649.492C1896.83 647.764 1897.46 646.384 1898.73 645.352C1900.03 644.296 1902.06 643.768 1904.82 643.768H1909.79V643.48C1909.79 642.136 1909.38 641.104 1908.56 640.384C1907.77 639.664 1906.58 639.304 1905 639.304C1903.92 639.304 1902.85 639.472 1901.79 639.808C1900.76 640.144 1899.89 640.612 1899.17 641.212L1897.4 637.936C1898.41 637.168 1899.62 636.58 1901.04 636.172C1902.45 635.764 1903.95 635.56 1905.54 635.56ZM1904.93 651.976C1906.05 651.976 1907.05 651.724 1907.91 651.22C1908.8 650.692 1909.43 649.948 1909.79 648.988V646.756H1905.14C1902.55 646.756 1901.25 647.608 1901.25 649.312C1901.25 650.128 1901.58 650.776 1902.23 651.256C1902.87 651.736 1903.77 651.976 1904.93 651.976ZM1939.07 628.288V655H1934.75V652.516C1934 653.428 1933.08 654.112 1931.97 654.568C1930.89 655.024 1929.69 655.252 1928.37 655.252C1926.53 655.252 1924.86 654.844 1923.37 654.028C1921.91 653.212 1920.75 652.06 1919.91 650.572C1919.07 649.06 1918.65 647.332 1918.65 645.388C1918.65 643.444 1919.07 641.728 1919.91 640.24C1920.75 638.752 1921.91 637.6 1923.37 636.784C1924.86 635.968 1926.53 635.56 1928.37 635.56C1929.65 635.56 1930.81 635.776 1931.87 636.208C1932.92 636.64 1933.82 637.288 1934.57 638.152V628.288H1939.07ZM1928.91 651.4C1929.99 651.4 1930.97 651.16 1931.83 650.68C1932.69 650.176 1933.38 649.468 1933.88 648.556C1934.39 647.644 1934.64 646.588 1934.64 645.388C1934.64 644.188 1934.39 643.132 1933.88 642.22C1933.38 641.308 1932.69 640.612 1931.83 640.132C1930.97 639.628 1929.99 639.376 1928.91 639.376C1927.83 639.376 1926.86 639.628 1926 640.132C1925.13 640.612 1924.45 641.308 1923.95 642.22C1923.44 643.132 1923.19 644.188 1923.19 645.388C1923.19 646.588 1923.44 647.644 1923.95 648.556C1924.45 649.468 1925.13 650.176 1926 650.68C1926.86 651.16 1927.83 651.4 1928.91 651.4ZM1963.02 645.496C1963.02 645.808 1963 646.252 1962.95 646.828H1947.87C1948.13 648.244 1948.82 649.372 1949.92 650.212C1951.05 651.028 1952.44 651.436 1954.1 651.436C1956.21 651.436 1957.95 650.74 1959.32 649.348L1961.73 652.12C1960.86 653.152 1959.77 653.932 1958.45 654.46C1957.13 654.988 1955.64 655.252 1953.99 655.252C1951.88 655.252 1950.02 654.832 1948.41 653.992C1946.8 653.152 1945.55 651.988 1944.66 650.5C1943.8 648.988 1943.37 647.284 1943.37 645.388C1943.37 643.516 1943.79 641.836 1944.63 640.348C1945.49 638.836 1946.68 637.66 1948.19 636.82C1949.7 635.98 1951.41 635.56 1953.3 635.56C1955.18 635.56 1956.84 635.98 1958.31 636.82C1959.8 637.636 1960.95 638.8 1961.76 640.312C1962.6 641.8 1963.02 643.528 1963.02 645.496ZM1953.3 639.16C1951.86 639.16 1950.64 639.592 1949.63 640.456C1948.65 641.296 1948.05 642.424 1947.83 643.84H1958.74C1958.55 642.448 1957.96 641.32 1956.98 640.456C1955.99 639.592 1954.77 639.16 1953.3 639.16ZM1971.63 638.584C1972.93 636.568 1975.21 635.56 1978.47 635.56V639.844C1978.09 639.772 1977.74 639.736 1977.43 639.736C1975.67 639.736 1974.31 640.252 1973.32 641.284C1972.34 642.292 1971.85 643.756 1971.85 645.676V655H1967.35V635.776H1971.63V638.584Z" fill="#FF7F50"/>
<path d="M2676.76 1279.55C2677.45 1280.23 2677.52 1281.28 2676.95 1282.02L2676.76 1282.23L2664.47 1294.21C2663.78 1294.88 2662.7 1294.94 2661.94 1294.39L2661.72 1294.21L2655.57 1288.22C2654.81 1287.48 2654.81 1286.28 2655.57 1285.54C2656.26 1284.87 2657.34 1284.81 2658.1 1285.36L2658.32 1285.54L2663.09 1290.19L2674.02 1279.55C2674.78 1278.82 2676.01 1278.82 2676.76 1279.55Z" fill="#312E2E"/>
<rect x="1771" y="755" width="289" height="63" rx="13" stroke="#FF7F50" stroke-width="4"/>
<path d="M1893.24 785.896C1894.63 786.352 1895.74 787.12 1896.55 788.2C1897.37 789.256 1897.78 790.576 1897.78 792.16C1897.78 794.344 1896.94 796.036 1895.26 797.236C1893.58 798.412 1891.13 799 1887.91 799H1875.38V773.8H1887.19C1890.17 773.8 1892.46 774.388 1894.07 775.564C1895.68 776.716 1896.48 778.312 1896.48 780.352C1896.48 781.6 1896.19 782.704 1895.62 783.664C1895.04 784.624 1894.25 785.368 1893.24 785.896ZM1880.06 777.472V784.42H1886.69C1888.32 784.42 1889.57 784.132 1890.43 783.556C1891.32 782.956 1891.76 782.092 1891.76 780.964C1891.76 779.812 1891.32 778.948 1890.43 778.372C1889.57 777.772 1888.32 777.472 1886.69 777.472H1880.06ZM1887.62 795.328C1891.25 795.328 1893.06 794.116 1893.06 791.692C1893.06 789.268 1891.25 788.056 1887.62 788.056H1880.06V795.328H1887.62ZM1910.98 799.252C1909.03 799.252 1907.28 798.832 1905.72 797.992C1904.16 797.152 1902.94 795.988 1902.05 794.5C1901.19 792.988 1900.75 791.284 1900.75 789.388C1900.75 787.492 1901.19 785.8 1902.05 784.312C1902.94 782.824 1904.16 781.66 1905.72 780.82C1907.28 779.98 1909.03 779.56 1910.98 779.56C1912.95 779.56 1914.71 779.98 1916.27 780.82C1917.83 781.66 1919.04 782.824 1919.91 784.312C1920.79 785.8 1921.24 787.492 1921.24 789.388C1921.24 791.284 1920.79 792.988 1919.91 794.5C1919.04 795.988 1917.83 797.152 1916.27 797.992C1914.71 798.832 1912.95 799.252 1910.98 799.252ZM1910.98 795.4C1912.63 795.4 1914 794.848 1915.08 793.744C1916.16 792.64 1916.7 791.188 1916.7 789.388C1916.7 787.588 1916.16 786.136 1915.08 785.032C1914 783.928 1912.63 783.376 1910.98 783.376C1909.32 783.376 1907.95 783.928 1906.87 785.032C1905.82 786.136 1905.29 787.588 1905.29 789.388C1905.29 791.188 1905.82 792.64 1906.87 793.744C1907.95 794.848 1909.32 795.4 1910.98 795.4ZM1931.48 799.252C1929.92 799.252 1928.4 799.048 1926.91 798.64C1925.42 798.232 1924.23 797.716 1923.35 797.092L1925.07 793.672C1925.94 794.248 1926.97 794.716 1928.17 795.076C1929.39 795.412 1930.59 795.58 1931.77 795.58C1934.46 795.58 1935.8 794.872 1935.8 793.456C1935.8 792.784 1935.45 792.316 1934.76 792.052C1934.09 791.788 1932.99 791.536 1931.48 791.296C1929.9 791.056 1928.6 790.78 1927.59 790.468C1926.61 790.156 1925.75 789.616 1925 788.848C1924.28 788.056 1923.92 786.964 1923.92 785.572C1923.92 783.748 1924.68 782.296 1926.19 781.216C1927.73 780.112 1929.79 779.56 1932.38 779.56C1933.7 779.56 1935.02 779.716 1936.34 780.028C1937.66 780.316 1938.74 780.712 1939.58 781.216L1937.85 784.636C1936.22 783.676 1934.39 783.196 1932.35 783.196C1931.03 783.196 1930.02 783.4 1929.32 783.808C1928.65 784.192 1928.31 784.708 1928.31 785.356C1928.31 786.076 1928.67 786.592 1929.39 786.904C1930.14 787.192 1931.28 787.468 1932.81 787.732C1934.35 787.972 1935.61 788.248 1936.59 788.56C1937.58 788.872 1938.42 789.4 1939.11 790.144C1939.83 790.888 1940.19 791.944 1940.19 793.312C1940.19 795.112 1939.41 796.552 1937.85 797.632C1936.29 798.712 1934.17 799.252 1931.48 799.252ZM1950.01 799.252C1948.45 799.252 1946.93 799.048 1945.44 798.64C1943.95 798.232 1942.76 797.716 1941.87 797.092L1943.6 793.672C1944.47 794.248 1945.5 794.716 1946.7 795.076C1947.92 795.412 1949.12 795.58 1950.3 795.58C1952.99 795.58 1954.33 794.872 1954.33 793.456C1954.33 792.784 1953.98 792.316 1953.29 792.052C1952.61 791.788 1951.52 791.536 1950.01 791.296C1948.43 791.056 1947.13 790.78 1946.12 790.468C1945.14 790.156 1944.27 789.616 1943.53 788.848C1942.81 788.056 1942.45 786.964 1942.45 785.572C1942.45 783.748 1943.21 782.296 1944.72 781.216C1946.25 780.112 1948.32 779.56 1950.91 779.56C1952.23 779.56 1953.55 779.716 1954.87 780.028C1956.19 780.316 1957.27 780.712 1958.11 781.216L1956.38 784.636C1954.75 783.676 1952.91 783.196 1950.87 783.196C1949.55 783.196 1948.55 783.4 1947.85 783.808C1947.18 784.192 1946.84 784.708 1946.84 785.356C1946.84 786.076 1947.2 786.592 1947.92 786.904C1948.67 787.192 1949.81 787.468 1951.34 787.732C1952.88 787.972 1954.14 788.248 1955.12 788.56C1956.11 788.872 1956.95 789.4 1957.64 790.144C1958.36 790.888 1958.72 791.944 1958.72 793.312C1958.72 795.112 1957.94 796.552 1956.38 797.632C1954.82 798.712 1952.7 799.252 1950.01 799.252Z" fill="#FF7F50"/>
<rect x="1771" y="911" width="289" height="63" rx="13" stroke="#FF7F50" stroke-width="4"/>
<path d="M1860.06 933.724V941.392H1872.23V945.352H1860.06V955H1855.38V929.8H1873.78V933.724H1860.06ZM1877.52 935.776H1882.02V955H1877.52V935.776ZM1879.79 932.608C1878.97 932.608 1878.29 932.356 1877.74 931.852C1877.19 931.324 1876.91 930.676 1876.91 929.908C1876.91 929.14 1877.19 928.504 1877.74 928C1878.29 927.472 1878.97 927.208 1879.79 927.208C1880.61 927.208 1881.29 927.46 1881.84 927.964C1882.39 928.444 1882.67 929.056 1882.67 929.8C1882.67 930.592 1882.39 931.264 1881.84 931.816C1881.31 932.344 1880.63 932.608 1879.79 932.608ZM1907.01 935.776V952.084C1907.01 958.852 1903.55 962.236 1896.64 962.236C1894.79 962.236 1893.04 961.996 1891.38 961.516C1889.73 961.06 1888.36 960.388 1887.28 959.5L1889.3 956.116C1890.14 956.812 1891.19 957.364 1892.46 957.772C1893.76 958.204 1895.07 958.42 1896.39 958.42C1898.5 958.42 1900.05 957.94 1901.03 956.98C1902.02 956.02 1902.51 954.556 1902.51 952.588V951.58C1901.74 952.42 1900.8 953.056 1899.7 953.488C1898.6 953.92 1897.38 954.136 1896.06 954.136C1894.24 954.136 1892.58 953.752 1891.1 952.984C1889.63 952.192 1888.47 951.088 1887.6 949.672C1886.76 948.256 1886.34 946.636 1886.34 944.812C1886.34 942.988 1886.76 941.38 1887.6 939.988C1888.47 938.572 1889.63 937.48 1891.1 936.712C1892.58 935.944 1894.24 935.56 1896.06 935.56C1897.46 935.56 1898.72 935.788 1899.84 936.244C1901 936.7 1901.96 937.396 1902.72 938.332V935.776H1907.01ZM1896.75 950.32C1898.45 950.32 1899.84 949.816 1900.92 948.808C1902.03 947.776 1902.58 946.444 1902.58 944.812C1902.58 943.204 1902.03 941.896 1900.92 940.888C1899.84 939.88 1898.45 939.376 1896.75 939.376C1895.02 939.376 1893.6 939.88 1892.5 940.888C1891.42 941.896 1890.88 943.204 1890.88 944.812C1890.88 946.444 1891.42 947.776 1892.5 948.808C1893.6 949.816 1895.02 950.32 1896.75 950.32ZM1923.83 935.56C1926.26 935.56 1928.2 936.268 1929.66 937.684C1931.13 939.1 1931.86 941.2 1931.86 943.984V955H1927.36V944.56C1927.36 942.88 1926.96 941.62 1926.17 940.78C1925.38 939.916 1924.25 939.484 1922.79 939.484C1921.13 939.484 1919.82 939.988 1918.86 940.996C1917.9 941.98 1917.42 943.408 1917.42 945.28V955H1912.92V928.288H1917.42V938.008C1918.17 937.216 1919.08 936.616 1920.16 936.208C1921.26 935.776 1922.49 935.56 1923.83 935.56ZM1949.13 953.956C1948.6 954.388 1947.95 954.712 1947.18 954.928C1946.44 955.144 1945.65 955.252 1944.81 955.252C1942.69 955.252 1941.06 954.7 1939.91 953.596C1938.76 952.492 1938.18 950.884 1938.18 948.772V939.52H1935.01V935.92H1938.18V931.528H1942.68V935.92H1947.83V939.52H1942.68V948.664C1942.68 949.6 1942.91 950.32 1943.37 950.824C1943.82 951.304 1944.48 951.544 1945.35 951.544C1946.35 951.544 1947.19 951.28 1947.87 950.752L1949.13 953.956ZM1970.27 945.496C1970.27 945.808 1970.24 946.252 1970.19 946.828H1955.11C1955.37 948.244 1956.06 949.372 1957.16 950.212C1958.29 951.028 1959.68 951.436 1961.34 951.436C1963.45 951.436 1965.19 950.74 1966.56 949.348L1968.97 952.12C1968.11 953.152 1967.01 953.932 1965.69 954.46C1964.37 954.988 1962.89 955.252 1961.23 955.252C1959.12 955.252 1957.26 954.832 1955.65 953.992C1954.04 953.152 1952.79 951.988 1951.91 950.5C1951.04 948.988 1950.61 947.284 1950.61 945.388C1950.61 943.516 1951.03 941.836 1951.87 940.348C1952.73 938.836 1953.92 937.66 1955.43 936.82C1956.95 935.98 1958.65 935.56 1960.55 935.56C1962.42 935.56 1964.09 935.98 1965.55 936.82C1967.04 937.636 1968.19 938.8 1969.01 940.312C1969.85 941.8 1970.27 943.528 1970.27 945.496ZM1960.55 939.16C1959.11 939.16 1957.88 939.592 1956.87 940.456C1955.89 941.296 1955.29 942.424 1955.07 943.84H1965.98C1965.79 942.448 1965.2 941.32 1964.22 940.456C1963.23 939.592 1962.01 939.16 1960.55 939.16ZM1978.87 938.584C1980.17 936.568 1982.45 935.56 1985.71 935.56V939.844C1985.33 939.772 1984.98 939.736 1984.67 939.736C1982.92 939.736 1981.55 940.252 1980.56 941.284C1979.58 942.292 1979.09 943.756 1979.09 945.676V955H1974.59V935.776H1978.87V938.584Z" fill="#FF7F50"/>
<path d="M1781.26 244.735C1782.16 245.626 1782.24 247.021 1781.51 248.003L1781.26 248.285L1761.08 268.396L1781.26 288.507C1782.16 289.398 1782.24 290.792 1781.51 291.775L1781.26 292.056C1780.37 292.947 1778.97 293.028 1777.98 292.299L1777.7 292.056L1755.74 270.17C1754.84 269.279 1754.76 267.885 1755.49 266.902L1755.74 266.621L1777.7 244.735C1778.68 243.755 1780.28 243.755 1781.26 244.735Z" fill="white"/>
<circle cx="1946" cy="489" r="9" fill="#FF6400"/>
<path d="M1864.42 253.104H1848.29V243.6H1892.21V253.104H1876.08V294H1864.42V253.104ZM1911.35 254.688C1917.35 254.688 1921.96 256.128 1925.17 259.008C1928.39 261.84 1930 266.136 1930 271.896V294H1919.48V289.176C1917.37 292.776 1913.44 294.576 1907.68 294.576C1904.7 294.576 1902.11 294.072 1899.9 293.064C1897.74 292.056 1896.08 290.664 1894.93 288.888C1893.78 287.112 1893.2 285.096 1893.2 282.84C1893.2 279.24 1894.55 276.408 1897.24 274.344C1899.97 272.28 1904.17 271.248 1909.84 271.248H1918.76C1918.76 268.8 1918.02 266.928 1916.53 265.632C1915.04 264.288 1912.81 263.616 1909.84 263.616C1907.77 263.616 1905.73 263.952 1903.72 264.624C1901.75 265.248 1900.07 266.112 1898.68 267.216L1894.64 259.368C1896.76 257.88 1899.28 256.728 1902.2 255.912C1905.18 255.096 1908.23 254.688 1911.35 254.688ZM1910.48 287.016C1912.4 287.016 1914.11 286.584 1915.6 285.72C1917.08 284.808 1918.14 283.488 1918.76 281.76V277.8H1911.06C1906.45 277.8 1904.15 279.312 1904.15 282.336C1904.15 283.776 1904.7 284.928 1905.8 285.792C1906.96 286.608 1908.52 287.016 1910.48 287.016ZM1980.54 255.264V287.52C1980.54 294.624 1978.69 299.904 1975 303.36C1971.3 306.816 1965.9 308.544 1958.8 308.544C1955.05 308.544 1951.5 308.088 1948.14 307.176C1944.78 306.264 1942 304.944 1939.79 303.216L1944.25 295.152C1945.89 296.496 1947.95 297.552 1950.45 298.32C1952.94 299.136 1955.44 299.544 1957.93 299.544C1961.82 299.544 1964.68 298.656 1966.5 296.88C1968.37 295.152 1969.31 292.512 1969.31 288.96V287.304C1966.38 290.52 1962.3 292.128 1957.07 292.128C1953.52 292.128 1950.25 291.36 1947.28 289.824C1944.35 288.24 1942.02 286.032 1940.29 283.2C1938.57 280.368 1937.7 277.104 1937.7 273.408C1937.7 269.712 1938.57 266.448 1940.29 263.616C1942.02 260.784 1944.35 258.6 1947.28 257.064C1950.25 255.48 1953.52 254.688 1957.07 254.688C1962.69 254.688 1966.96 256.536 1969.89 260.232V255.264H1980.54ZM1959.3 282.912C1962.28 282.912 1964.7 282.048 1966.57 280.32C1968.49 278.544 1969.45 276.24 1969.45 273.408C1969.45 270.576 1968.49 268.296 1966.57 266.568C1964.7 264.792 1962.28 263.904 1959.3 263.904C1956.33 263.904 1953.88 264.792 1951.96 266.568C1950.04 268.296 1949.08 270.576 1949.08 273.408C1949.08 276.24 1950.04 278.544 1951.96 280.32C1953.88 282.048 1956.33 282.912 1959.3 282.912ZM2004.03 294.576C2000.81 294.576 1997.67 294.192 1994.6 293.424C1991.52 292.608 1989.08 291.6 1987.25 290.4L1991 282.336C1992.72 283.44 1994.81 284.352 1997.26 285.072C1999.71 285.744 2002.11 286.08 2004.46 286.08C2009.21 286.08 2011.59 284.904 2011.59 282.552C2011.59 281.448 2010.94 280.656 2009.64 280.176C2008.35 279.696 2006.36 279.288 2003.67 278.952C2000.5 278.472 1997.88 277.92 1995.82 277.296C1993.76 276.672 1991.96 275.568 1990.42 273.984C1988.93 272.4 1988.19 270.144 1988.19 267.216C1988.19 264.768 1988.88 262.608 1990.28 260.736C1991.72 258.816 1993.78 257.328 1996.47 256.272C1999.2 255.216 2002.42 254.688 2006.12 254.688C2008.85 254.688 2011.56 255 2014.25 255.624C2016.99 256.2 2019.24 257.016 2021.02 258.072L2017.28 266.064C2013.87 264.144 2010.15 263.184 2006.12 263.184C2003.72 263.184 2001.92 263.52 2000.72 264.192C1999.52 264.864 1998.92 265.728 1998.92 266.784C1998.92 267.984 1999.56 268.824 2000.86 269.304C2002.16 269.784 2004.22 270.24 2007.05 270.672C2010.22 271.2 2012.81 271.776 2014.83 272.4C2016.84 272.976 2018.6 274.056 2020.08 275.64C2021.57 277.224 2022.32 279.432 2022.32 282.264C2022.32 284.664 2021.6 286.8 2020.16 288.672C2018.72 290.544 2016.6 292.008 2013.82 293.064C2011.08 294.072 2007.82 294.576 2004.03 294.576Z" fill="#FF6400"/>
<g filter="url(#filter0_d_1437_548)">
<rect x="1804" y="373" width="284" height="87" rx="20" fill="#312E2E"/>
<rect x="1806" y="375" width="280" height="83" rx="18" stroke="#FF7F50" stroke-width="4"/>
</g>
<path d="M1902.58 422.6H1890.88L1888.65 428H1882.68L1893.91 402.8H1899.67L1910.94 428H1904.82L1902.58 422.6ZM1900.75 418.172L1896.75 408.524L1892.76 418.172H1900.75ZM1911.75 402.8H1917.58V423.248H1930.22V428H1911.75V402.8ZM1942.59 402.8C1944.82 402.8 1946.75 403.172 1948.38 403.916C1950.04 404.66 1951.31 405.716 1952.2 407.084C1953.09 408.452 1953.53 410.072 1953.53 411.944C1953.53 413.792 1953.09 415.412 1952.2 416.804C1951.31 418.172 1950.04 419.228 1948.38 419.972C1946.75 420.692 1944.82 421.052 1942.59 421.052H1937.51V428H1931.68V402.8H1942.59ZM1942.26 416.3C1944.01 416.3 1945.35 415.928 1946.26 415.184C1947.17 414.416 1947.63 413.336 1947.63 411.944C1947.63 410.528 1947.17 409.448 1946.26 408.704C1945.35 407.936 1944.01 407.552 1942.26 407.552H1937.51V416.3H1942.26ZM1979 402.8V428H1973.17V417.668H1961.72V428H1955.89V402.8H1961.72V412.736H1973.17V402.8H1979ZM1999.76 422.6H1988.06L1985.83 428H1979.85L1991.09 402.8H1996.85L2008.11 428H2001.99L1999.76 422.6ZM1997.93 418.172L1993.93 408.524L1989.93 418.172H1997.93Z" fill="#FF6400"/>
<g filter="url(#filter1_d_1437_548)">
<rect x="2313" y="372" width="240" height="87" rx="20" fill="#312E2E"/>
<rect x="2315" y="374" width="236" height="83" rx="18" stroke="#65FF00" stroke-width="4"/>
</g>
<g filter="url(#filter2_d_1437_548)">
<path d="M2350.04 428L2345.18 420.98H2344.9H2339.82V428H2333.99V402.8H2344.9C2347.13 402.8 2349.06 403.172 2350.69 403.916C2352.35 404.66 2353.62 405.716 2354.51 407.084C2355.4 408.452 2355.84 410.072 2355.84 411.944C2355.84 413.816 2355.38 415.436 2354.47 416.804C2353.58 418.148 2352.31 419.18 2350.66 419.9L2356.31 428H2350.04ZM2349.94 411.944C2349.94 410.528 2349.48 409.448 2348.57 408.704C2347.66 407.936 2346.32 407.552 2344.57 407.552H2339.82V416.336H2344.57C2346.32 416.336 2347.66 415.952 2348.57 415.184C2349.48 414.416 2349.94 413.336 2349.94 411.944ZM2378.17 423.32V428H2358.66V402.8H2377.7V407.48H2364.46V412.952H2376.16V417.488H2364.46V423.32H2378.17ZM2386.85 407.48V414.14H2398.51V418.82H2386.85V428H2381.01V402.8H2400.06V407.48H2386.85ZM2414.16 428.432C2411.55 428.432 2409.18 427.868 2407.07 426.74C2404.98 425.612 2403.34 424.064 2402.14 422.096C2400.96 420.104 2400.38 417.872 2400.38 415.4C2400.38 412.928 2400.96 410.708 2402.14 408.74C2403.34 406.748 2404.98 405.188 2407.07 404.06C2409.18 402.932 2411.55 402.368 2414.16 402.368C2416.78 402.368 2419.13 402.932 2421.22 404.06C2423.31 405.188 2424.95 406.748 2426.15 408.74C2427.35 410.708 2427.95 412.928 2427.95 415.4C2427.95 417.872 2427.35 420.104 2426.15 422.096C2424.95 424.064 2423.31 425.612 2421.22 426.74C2419.13 427.868 2416.78 428.432 2414.16 428.432ZM2414.16 423.464C2415.65 423.464 2417 423.128 2418.2 422.456C2419.4 421.76 2420.33 420.8 2421 419.576C2421.7 418.352 2422.05 416.96 2422.05 415.4C2422.05 413.84 2421.7 412.448 2421 411.224C2420.33 410 2419.4 409.052 2418.2 408.38C2417 407.684 2415.65 407.336 2414.16 407.336C2412.68 407.336 2411.33 407.684 2410.13 408.38C2408.93 409.052 2407.98 410 2407.29 411.224C2406.62 412.448 2406.28 413.84 2406.28 415.4C2406.28 416.96 2406.62 418.352 2407.29 419.576C2407.98 420.8 2408.93 421.76 2410.13 422.456C2411.33 423.128 2412.68 423.464 2414.16 423.464ZM2446.59 428L2441.73 420.98H2441.44H2436.37V428H2430.53V402.8H2441.44C2443.67 402.8 2445.61 403.172 2447.24 403.916C2448.89 404.66 2450.17 405.716 2451.05 407.084C2451.94 408.452 2452.39 410.072 2452.39 411.944C2452.39 413.816 2451.93 415.436 2451.02 416.804C2450.13 418.148 2448.86 419.18 2447.2 419.9L2452.85 428H2446.59ZM2446.48 411.944C2446.48 410.528 2446.03 409.448 2445.11 408.704C2444.2 407.936 2442.87 407.552 2441.12 407.552H2436.37V416.336H2441.12C2442.87 416.336 2444.2 415.952 2445.11 415.184C2446.03 414.416 2446.48 413.336 2446.48 411.944ZM2478.14 428L2478.1 412.88L2470.69 425.336H2468.06L2460.68 413.204V428H2455.21V402.8H2460.03L2469.46 418.46L2478.75 402.8H2483.54L2483.61 428H2478.14ZM2507.3 423.32V428H2487.79V402.8H2506.83V407.48H2493.59V412.952H2505.29V417.488H2493.59V423.32H2507.3ZM2526.2 428L2521.34 420.98H2521.05H2515.97V428H2510.14V402.8H2521.05C2523.28 402.8 2525.21 403.172 2526.85 403.916C2528.5 404.66 2529.77 405.716 2530.66 407.084C2531.55 408.452 2531.99 410.072 2531.99 411.944C2531.99 413.816 2531.54 415.436 2530.63 416.804C2529.74 418.148 2528.47 419.18 2526.81 419.9L2532.46 428H2526.2ZM2526.09 411.944C2526.09 410.528 2525.63 409.448 2524.72 408.704C2523.81 407.936 2522.48 407.552 2520.73 407.552H2515.97V416.336H2520.73C2522.48 416.336 2523.81 415.952 2524.72 415.184C2525.63 414.416 2526.09 413.336 2526.09 411.944Z" fill="#65FF00"/>
</g>
<g filter="url(#filter3_d_1437_548)">
<rect x="2767" y="372" width="284" height="87" rx="20" fill="#312E2E"/>
<rect x="2769" y="374" width="280" height="83" rx="18" stroke="#0026FF" stroke-width="4"/>
</g>
<path d="M2794.9 402.8C2797.13 402.8 2799.06 403.172 2800.69 403.916C2802.35 404.66 2803.62 405.716 2804.51 407.084C2805.4 408.452 2805.84 410.072 2805.84 411.944C2805.84 413.792 2805.4 415.412 2804.51 416.804C2803.62 418.172 2802.35 419.228 2800.69 419.972C2799.06 420.692 2797.13 421.052 2794.9 421.052H2789.82V428H2783.99V402.8H2794.9ZM2794.57 416.3C2796.32 416.3 2797.66 415.928 2798.57 415.184C2799.48 414.416 2799.94 413.336 2799.94 411.944C2799.94 410.528 2799.48 409.448 2798.57 408.704C2797.66 407.936 2796.32 407.552 2794.57 407.552H2789.82V416.3H2794.57ZM2827.72 423.32V428H2808.2V402.8H2827.25V407.48H2814V412.952H2825.7V417.488H2814V423.32H2827.72ZM2847.15 422.6H2835.45L2833.22 428H2827.24L2838.48 402.8H2844.24L2855.5 428H2849.38L2847.15 422.6ZM2845.32 418.172L2841.32 408.524L2837.32 418.172H2845.32ZM2868.03 428.432C2865.46 428.432 2863.13 427.88 2861.04 426.776C2858.98 425.648 2857.35 424.1 2856.15 422.132C2854.97 420.14 2854.38 417.896 2854.38 415.4C2854.38 412.904 2854.97 410.672 2856.15 408.704C2857.35 406.712 2858.98 405.164 2861.04 404.06C2863.13 402.932 2865.47 402.368 2868.06 402.368C2870.25 402.368 2872.21 402.752 2873.97 403.52C2875.74 404.288 2877.23 405.392 2878.43 406.832L2874.69 410.288C2872.98 408.32 2870.87 407.336 2868.35 407.336C2866.79 407.336 2865.4 407.684 2864.17 408.38C2862.95 409.052 2861.99 410 2861.29 411.224C2860.62 412.448 2860.29 413.84 2860.29 415.4C2860.29 416.96 2860.62 418.352 2861.29 419.576C2861.99 420.8 2862.95 421.76 2864.17 422.456C2865.4 423.128 2866.79 423.464 2868.35 423.464C2870.87 423.464 2872.98 422.468 2874.69 420.476L2878.43 423.932C2877.23 425.396 2875.74 426.512 2873.97 427.28C2872.19 428.048 2870.21 428.432 2868.03 428.432ZM2900.08 423.32V428H2880.57V402.8H2899.61V407.48H2886.37V412.952H2898.07V417.488H2886.37V423.32H2900.08ZM2925.85 428L2925.82 412.88L2918.4 425.336H2915.77L2908.39 413.204V428H2902.92V402.8H2907.75L2917.18 418.46L2926.47 402.8H2931.25L2931.33 428H2925.85ZM2952.1 422.6H2940.4L2938.17 428H2932.19L2943.42 402.8H2949.18L2960.45 428H2954.33L2952.1 422.6ZM2950.26 418.172L2946.27 408.524L2942.27 418.172H2950.26ZM2970.45 418.1L2967.06 421.628V428H2961.27V402.8H2967.06V414.572L2978.22 402.8H2984.7L2974.26 414.032L2985.31 428H2978.51L2970.45 418.1ZM3005.63 423.32V428H2986.12V402.8H3005.16V407.48H2991.91V412.952H3003.61V417.488H2991.91V423.32H3005.63ZM3024.52 428L3019.66 420.98H3019.38H3014.3V428H3008.47V402.8H3019.38C3021.61 402.8 3023.54 403.172 3025.17 403.916C3026.83 404.66 3028.1 405.716 3028.99 407.084C3029.88 408.452 3030.32 410.072 3030.32 411.944C3030.32 413.816 3029.86 415.436 3028.95 416.804C3028.06 418.148 3026.79 419.18 3025.14 419.9L3030.79 428H3024.52ZM3024.42 411.944C3024.42 410.528 3023.96 409.448 3023.05 408.704C3022.14 407.936 3020.8 407.552 3019.05 407.552H3014.3V416.336H3019.05C3020.8 416.336 3022.14 415.952 3023.05 415.184C3023.96 414.416 3024.42 413.336 3024.42 411.944Z" fill="#0026FF"/>
<path d="M2934.87 979.786H2948.91V977.479C2948.91 973.355 2952.24 970 2956.33 970H2969.67C2973.76 970 2977.09 973.355 2977.09 977.479V979.786H2991.13C2992.17 979.786 2993 980.625 2993 981.674C2993 982.722 2992.17 983.561 2991.13 983.561H2987.74V1027.91C2987.74 1033.47 2983.25 1038 2977.73 1038H2948.27C2942.75 1038 2938.26 1033.47 2938.26 1027.91V983.561H2934.87C2933.83 983.561 2933 982.722 2933 981.674C2933 980.625 2933.83 979.786 2934.87 979.786ZM2973.35 977.479C2973.35 975.438 2971.7 973.775 2969.67 973.775H2956.33C2954.3 973.775 2952.65 975.438 2952.65 977.479V979.786H2973.35V977.479ZM2942 1027.91C2942 1031.39 2944.82 1034.23 2948.27 1034.23H2977.73C2981.18 1034.23 2984 1031.39 2984 1027.91V983.561H2941.99V1027.91H2942Z" fill="#312E2E"/>
<path d="M2963 1027.46C2961.96 1027.46 2961.13 1026.62 2961.13 1025.57V992.215C2961.13 991.167 2961.96 990.328 2963 990.328C2964.04 990.328 2964.87 991.167 2964.87 992.215V1025.56C2964.87 1026.61 2964.04 1027.46 2963 1027.46Z" fill="#312E2E"/>
<path d="M2975.22 1025.38C2974.18 1025.38 2973.35 1024.54 2973.35 1023.49V994.284C2973.35 993.235 2974.18 992.396 2975.22 992.396C2976.26 992.396 2977.09 993.235 2977.09 994.284V1023.49C2977.09 1024.54 2976.25 1025.38 2975.22 1025.38Z" fill="#312E2E"/>
<path d="M2950.78 1025.38C2949.74 1025.38 2948.91 1024.54 2948.91 1023.49V994.284C2948.91 993.235 2949.74 992.396 2950.78 992.396C2951.82 992.396 2952.65 993.235 2952.65 994.284V1023.49C2952.65 1024.54 2951.82 1025.38 2950.78 1025.38Z" fill="#312E2E"/>
<g filter="url(#filter4_d_1437_548)">
<path d="M2776 611H3031C3038.18 611 3044 616.82 3044 624V661C3044 668.18 3038.18 674 3031 674H2776C2768.82 674 2763 668.18 2763 661V624C2763 616.82 2768.82 611 2776 611Z" stroke="#FF6400" stroke-width="4"/>
</g>
<path d="M2782 761H3031C3038.18 761 3044 766.82 3044 774V811C3044 818.18 3038.18 824 3031 824H2782C2774.82 824 2769 818.18 2769 811V774C2769 766.82 2774.82 761 2782 761Z" stroke="#FF6400" stroke-width="4"/>
<path d="M2782 911H3031C3038.18 911 3044 916.82 3044 924V961C3044 968.18 3038.18 974 3031 974H2782C2774.82 974 2769 968.18 2769 961V924C2769 916.82 2774.82 911 2782 911Z" stroke="#FF6400" stroke-width="4"/>
<path d="M2853.2 655.36C2851.25 655.36 2849.37 655.084 2847.54 654.532C2845.74 653.98 2844.32 653.248 2843.26 652.336L2844.88 648.7C2845.91 649.516 2847.17 650.188 2848.66 650.716C2850.17 651.22 2851.68 651.472 2853.2 651.472C2855.07 651.472 2856.46 651.172 2857.37 650.572C2858.31 649.972 2858.78 649.18 2858.78 648.196C2858.78 647.476 2858.51 646.888 2857.98 646.432C2857.48 645.952 2856.83 645.58 2856.04 645.316C2855.25 645.052 2854.17 644.752 2852.8 644.416C2850.88 643.96 2849.32 643.504 2848.12 643.048C2846.94 642.592 2845.92 641.884 2845.06 640.924C2844.22 639.94 2843.8 638.62 2843.8 636.964C2843.8 635.572 2844.17 634.312 2844.92 633.184C2845.68 632.032 2846.82 631.12 2848.34 630.448C2849.87 629.776 2851.74 629.44 2853.95 629.44C2855.49 629.44 2857 629.632 2858.49 630.016C2859.98 630.4 2861.26 630.952 2862.34 631.672L2860.86 635.308C2859.76 634.66 2858.61 634.168 2857.41 633.832C2856.21 633.496 2855.04 633.328 2853.92 633.328C2852.07 633.328 2850.69 633.64 2849.78 634.264C2848.89 634.888 2848.44 635.716 2848.44 636.748C2848.44 637.468 2848.7 638.056 2849.2 638.512C2849.73 638.968 2850.39 639.328 2851.18 639.592C2851.97 639.856 2853.05 640.156 2854.42 640.492C2856.29 640.924 2857.83 641.38 2859.03 641.86C2860.23 642.316 2861.25 643.024 2862.09 643.984C2862.95 644.944 2863.38 646.24 2863.38 647.872C2863.38 649.264 2863 650.524 2862.23 651.652C2861.49 652.78 2860.35 653.68 2858.81 654.352C2857.28 655.024 2855.4 655.36 2853.2 655.36ZM2885.66 645.496C2885.66 645.808 2885.64 646.252 2885.59 646.828H2870.51C2870.77 648.244 2871.46 649.372 2872.56 650.212C2873.69 651.028 2875.08 651.436 2876.74 651.436C2878.85 651.436 2880.59 650.74 2881.96 649.348L2884.37 652.12C2883.5 653.152 2882.41 653.932 2881.09 654.46C2879.77 654.988 2878.28 655.252 2876.63 655.252C2874.52 655.252 2872.66 654.832 2871.05 653.992C2869.44 653.152 2868.19 651.988 2867.3 650.5C2866.44 648.988 2866.01 647.284 2866.01 645.388C2866.01 643.516 2866.43 641.836 2867.27 640.348C2868.13 638.836 2869.32 637.66 2870.83 636.82C2872.34 635.98 2874.05 635.56 2875.94 635.56C2877.82 635.56 2879.48 635.98 2880.95 636.82C2882.44 637.636 2883.59 638.8 2884.4 640.312C2885.24 641.8 2885.66 643.528 2885.66 645.496ZM2875.94 639.16C2874.5 639.16 2873.28 639.592 2872.27 640.456C2871.29 641.296 2870.69 642.424 2870.47 643.84H2881.38C2881.19 642.448 2880.6 641.32 2879.62 640.456C2878.63 639.592 2877.41 639.16 2875.94 639.16ZM2889.99 628.288H2894.49V655H2889.99V628.288ZM2918.47 645.496C2918.47 645.808 2918.44 646.252 2918.39 646.828H2903.31C2903.57 648.244 2904.26 649.372 2905.36 650.212C2906.49 651.028 2907.88 651.436 2909.54 651.436C2911.65 651.436 2913.39 650.74 2914.76 649.348L2917.17 652.12C2916.31 653.152 2915.21 653.932 2913.89 654.46C2912.57 654.988 2911.09 655.252 2909.43 655.252C2907.32 655.252 2905.46 654.832 2903.85 653.992C2902.24 653.152 2900.99 651.988 2900.11 650.5C2899.24 648.988 2898.81 647.284 2898.81 645.388C2898.81 643.516 2899.23 641.836 2900.07 640.348C2900.93 638.836 2902.12 637.66 2903.63 636.82C2905.15 635.98 2906.85 635.56 2908.75 635.56C2910.62 635.56 2912.29 635.98 2913.75 636.82C2915.24 637.636 2916.39 638.8 2917.21 640.312C2918.05 641.8 2918.47 643.528 2918.47 645.496ZM2908.75 639.16C2907.31 639.16 2906.08 639.592 2905.07 640.456C2904.09 641.296 2903.49 642.424 2903.27 643.84H2914.18C2913.99 642.448 2913.4 641.32 2912.42 640.456C2911.43 639.592 2910.21 639.16 2908.75 639.16ZM2931.61 655.252C2929.62 655.252 2927.83 654.832 2926.24 653.992C2924.66 653.152 2923.42 651.988 2922.54 650.5C2921.65 648.988 2921.2 647.284 2921.2 645.388C2921.2 643.492 2921.65 641.8 2922.54 640.312C2923.42 638.824 2924.65 637.66 2926.21 636.82C2927.79 635.98 2929.59 635.56 2931.61 635.56C2933.5 635.56 2935.16 635.944 2936.58 636.712C2938.02 637.48 2939.1 638.584 2939.82 640.024L2936.36 642.04C2935.81 641.152 2935.11 640.492 2934.27 640.06C2933.46 639.604 2932.56 639.376 2931.57 639.376C2929.89 639.376 2928.5 639.928 2927.4 641.032C2926.29 642.112 2925.74 643.564 2925.74 645.388C2925.74 647.212 2926.28 648.676 2927.36 649.78C2928.46 650.86 2929.87 651.4 2931.57 651.4C2932.56 651.4 2933.46 651.184 2934.27 650.752C2935.11 650.296 2935.81 649.624 2936.36 648.736L2939.82 650.752C2939.07 652.192 2937.98 653.308 2936.54 654.1C2935.12 654.868 2933.48 655.252 2931.61 655.252ZM2955.51 653.956C2954.98 654.388 2954.33 654.712 2953.56 654.928C2952.82 655.144 2952.03 655.252 2951.19 655.252C2949.08 655.252 2947.44 654.7 2946.29 653.596C2945.14 652.492 2944.56 650.884 2944.56 648.772V639.52H2941.4V635.92H2944.56V631.528H2949.06V635.92H2954.21V639.52H2949.06V648.664C2949.06 649.6 2949.29 650.32 2949.75 650.824C2950.2 651.304 2950.86 651.544 2951.73 651.544C2952.74 651.544 2953.58 651.28 2954.25 650.752L2955.51 653.956Z" fill="#FF6400"/>
<path d="M2853.2 799.36C2851.25 799.36 2849.37 799.084 2847.54 798.532C2845.74 797.98 2844.32 797.248 2843.26 796.336L2844.88 792.7C2845.91 793.516 2847.17 794.188 2848.66 794.716C2850.17 795.22 2851.68 795.472 2853.2 795.472C2855.07 795.472 2856.46 795.172 2857.37 794.572C2858.31 793.972 2858.78 793.18 2858.78 792.196C2858.78 791.476 2858.51 790.888 2857.98 790.432C2857.48 789.952 2856.83 789.58 2856.04 789.316C2855.25 789.052 2854.17 788.752 2852.8 788.416C2850.88 787.96 2849.32 787.504 2848.12 787.048C2846.94 786.592 2845.92 785.884 2845.06 784.924C2844.22 783.94 2843.8 782.62 2843.8 780.964C2843.8 779.572 2844.17 778.312 2844.92 777.184C2845.68 776.032 2846.82 775.12 2848.34 774.448C2849.87 773.776 2851.74 773.44 2853.95 773.44C2855.49 773.44 2857 773.632 2858.49 774.016C2859.98 774.4 2861.26 774.952 2862.34 775.672L2860.86 779.308C2859.76 778.66 2858.61 778.168 2857.41 777.832C2856.21 777.496 2855.04 777.328 2853.92 777.328C2852.07 777.328 2850.69 777.64 2849.78 778.264C2848.89 778.888 2848.44 779.716 2848.44 780.748C2848.44 781.468 2848.7 782.056 2849.2 782.512C2849.73 782.968 2850.39 783.328 2851.18 783.592C2851.97 783.856 2853.05 784.156 2854.42 784.492C2856.29 784.924 2857.83 785.38 2859.03 785.86C2860.23 786.316 2861.25 787.024 2862.09 787.984C2862.95 788.944 2863.38 790.24 2863.38 791.872C2863.38 793.264 2863 794.524 2862.23 795.652C2861.49 796.78 2860.35 797.68 2858.81 798.352C2857.28 799.024 2855.4 799.36 2853.2 799.36ZM2885.66 789.496C2885.66 789.808 2885.64 790.252 2885.59 790.828H2870.51C2870.77 792.244 2871.46 793.372 2872.56 794.212C2873.69 795.028 2875.08 795.436 2876.74 795.436C2878.85 795.436 2880.59 794.74 2881.96 793.348L2884.37 796.12C2883.5 797.152 2882.41 797.932 2881.09 798.46C2879.77 798.988 2878.28 799.252 2876.63 799.252C2874.52 799.252 2872.66 798.832 2871.05 797.992C2869.44 797.152 2868.19 795.988 2867.3 794.5C2866.44 792.988 2866.01 791.284 2866.01 789.388C2866.01 787.516 2866.43 785.836 2867.27 784.348C2868.13 782.836 2869.32 781.66 2870.83 780.82C2872.34 779.98 2874.05 779.56 2875.94 779.56C2877.82 779.56 2879.48 779.98 2880.95 780.82C2882.44 781.636 2883.59 782.8 2884.4 784.312C2885.24 785.8 2885.66 787.528 2885.66 789.496ZM2875.94 783.16C2874.5 783.16 2873.28 783.592 2872.27 784.456C2871.29 785.296 2870.69 786.424 2870.47 787.84H2881.38C2881.19 786.448 2880.6 785.32 2879.62 784.456C2878.63 783.592 2877.41 783.16 2875.94 783.16ZM2889.99 772.288H2894.49V799H2889.99V772.288ZM2918.47 789.496C2918.47 789.808 2918.44 790.252 2918.39 790.828H2903.31C2903.57 792.244 2904.26 793.372 2905.36 794.212C2906.49 795.028 2907.88 795.436 2909.54 795.436C2911.65 795.436 2913.39 794.74 2914.76 793.348L2917.17 796.12C2916.31 797.152 2915.21 797.932 2913.89 798.46C2912.57 798.988 2911.09 799.252 2909.43 799.252C2907.32 799.252 2905.46 798.832 2903.85 797.992C2902.24 797.152 2900.99 795.988 2900.11 794.5C2899.24 792.988 2898.81 791.284 2898.81 789.388C2898.81 787.516 2899.23 785.836 2900.07 784.348C2900.93 782.836 2902.12 781.66 2903.63 780.82C2905.15 779.98 2906.85 779.56 2908.75 779.56C2910.62 779.56 2912.29 779.98 2913.75 780.82C2915.24 781.636 2916.39 782.8 2917.21 784.312C2918.05 785.8 2918.47 787.528 2918.47 789.496ZM2908.75 783.16C2907.31 783.16 2906.08 783.592 2905.07 784.456C2904.09 785.296 2903.49 786.424 2903.27 787.84H2914.18C2913.99 786.448 2913.4 785.32 2912.42 784.456C2911.43 783.592 2910.21 783.16 2908.75 783.16ZM2931.61 799.252C2929.62 799.252 2927.83 798.832 2926.24 797.992C2924.66 797.152 2923.42 795.988 2922.54 794.5C2921.65 792.988 2921.2 791.284 2921.2 789.388C2921.2 787.492 2921.65 785.8 2922.54 784.312C2923.42 782.824 2924.65 781.66 2926.21 780.82C2927.79 779.98 2929.59 779.56 2931.61 779.56C2933.5 779.56 2935.16 779.944 2936.58 780.712C2938.02 781.48 2939.1 782.584 2939.82 784.024L2936.36 786.04C2935.81 785.152 2935.11 784.492 2934.27 784.06C2933.46 783.604 2932.56 783.376 2931.57 783.376C2929.89 783.376 2928.5 783.928 2927.4 785.032C2926.29 786.112 2925.74 787.564 2925.74 789.388C2925.74 791.212 2926.28 792.676 2927.36 793.78C2928.46 794.86 2929.87 795.4 2931.57 795.4C2932.56 795.4 2933.46 795.184 2934.27 794.752C2935.11 794.296 2935.81 793.624 2936.36 792.736L2939.82 794.752C2939.07 796.192 2937.98 797.308 2936.54 798.1C2935.12 798.868 2933.48 799.252 2931.61 799.252ZM2955.51 797.956C2954.98 798.388 2954.33 798.712 2953.56 798.928C2952.82 799.144 2952.03 799.252 2951.19 799.252C2949.08 799.252 2947.44 798.7 2946.29 797.596C2945.14 796.492 2944.56 794.884 2944.56 792.772V783.52H2941.4V779.92H2944.56V775.528H2949.06V779.92H2954.21V783.52H2949.06V792.664C2949.06 793.6 2949.29 794.32 2949.75 794.824C2950.2 795.304 2950.86 795.544 2951.73 795.544C2952.74 795.544 2953.58 795.28 2954.25 794.752L2955.51 797.956Z" fill="#FF6400"/>
<path d="M2858.2 955.36C2856.25 955.36 2854.37 955.084 2852.54 954.532C2850.74 953.98 2849.32 953.248 2848.26 952.336L2849.88 948.7C2850.91 949.516 2852.17 950.188 2853.66 950.716C2855.17 951.22 2856.68 951.472 2858.2 951.472C2860.07 951.472 2861.46 951.172 2862.37 950.572C2863.31 949.972 2863.78 949.18 2863.78 948.196C2863.78 947.476 2863.51 946.888 2862.98 946.432C2862.48 945.952 2861.83 945.58 2861.04 945.316C2860.25 945.052 2859.17 944.752 2857.8 944.416C2855.88 943.96 2854.32 943.504 2853.12 943.048C2851.94 942.592 2850.92 941.884 2850.06 940.924C2849.22 939.94 2848.8 938.62 2848.8 936.964C2848.8 935.572 2849.17 934.312 2849.92 933.184C2850.68 932.032 2851.82 931.12 2853.34 930.448C2854.87 929.776 2856.74 929.44 2858.95 929.44C2860.49 929.44 2862 929.632 2863.49 930.016C2864.98 930.4 2866.26 930.952 2867.34 931.672L2865.86 935.308C2864.76 934.66 2863.61 934.168 2862.41 933.832C2861.21 933.496 2860.04 933.328 2858.92 933.328C2857.07 933.328 2855.69 933.64 2854.78 934.264C2853.89 934.888 2853.44 935.716 2853.44 936.748C2853.44 937.468 2853.7 938.056 2854.2 938.512C2854.73 938.968 2855.39 939.328 2856.18 939.592C2856.97 939.856 2858.05 940.156 2859.42 940.492C2861.29 940.924 2862.83 941.38 2864.03 941.86C2865.23 942.316 2866.25 943.024 2867.09 943.984C2867.95 944.944 2868.38 946.24 2868.38 947.872C2868.38 949.264 2868 950.524 2867.23 951.652C2866.49 952.78 2865.35 953.68 2863.81 954.352C2862.28 955.024 2860.4 955.36 2858.2 955.36ZM2890.66 945.496C2890.66 945.808 2890.64 946.252 2890.59 946.828H2875.51C2875.77 948.244 2876.46 949.372 2877.56 950.212C2878.69 951.028 2880.08 951.436 2881.74 951.436C2883.85 951.436 2885.59 950.74 2886.96 949.348L2889.37 952.12C2888.5 953.152 2887.41 953.932 2886.09 954.46C2884.77 954.988 2883.28 955.252 2881.63 955.252C2879.52 955.252 2877.66 954.832 2876.05 953.992C2874.44 953.152 2873.19 951.988 2872.3 950.5C2871.44 948.988 2871.01 947.284 2871.01 945.388C2871.01 943.516 2871.43 941.836 2872.27 940.348C2873.13 938.836 2874.32 937.66 2875.83 936.82C2877.34 935.98 2879.05 935.56 2880.94 935.56C2882.82 935.56 2884.48 935.98 2885.95 936.82C2887.44 937.636 2888.59 938.8 2889.4 940.312C2890.24 941.8 2890.66 943.528 2890.66 945.496ZM2880.94 939.16C2879.5 939.16 2878.28 939.592 2877.27 940.456C2876.29 941.296 2875.69 942.424 2875.47 943.84H2886.38C2886.19 942.448 2885.6 941.32 2884.62 940.456C2883.63 939.592 2882.41 939.16 2880.94 939.16ZM2894.99 928.288H2899.49V955H2894.99V928.288ZM2923.47 945.496C2923.47 945.808 2923.44 946.252 2923.39 946.828H2908.31C2908.57 948.244 2909.26 949.372 2910.36 950.212C2911.49 951.028 2912.88 951.436 2914.54 951.436C2916.65 951.436 2918.39 950.74 2919.76 949.348L2922.17 952.12C2921.31 953.152 2920.21 953.932 2918.89 954.46C2917.57 954.988 2916.09 955.252 2914.43 955.252C2912.32 955.252 2910.46 954.832 2908.85 953.992C2907.24 953.152 2905.99 951.988 2905.11 950.5C2904.24 948.988 2903.81 947.284 2903.81 945.388C2903.81 943.516 2904.23 941.836 2905.07 940.348C2905.93 938.836 2907.12 937.66 2908.63 936.82C2910.15 935.98 2911.85 935.56 2913.75 935.56C2915.62 935.56 2917.29 935.98 2918.75 936.82C2920.24 937.636 2921.39 938.8 2922.21 940.312C2923.05 941.8 2923.47 943.528 2923.47 945.496ZM2913.75 939.16C2912.31 939.16 2911.08 939.592 2910.07 940.456C2909.09 941.296 2908.49 942.424 2908.27 943.84H2919.18C2918.99 942.448 2918.4 941.32 2917.42 940.456C2916.43 939.592 2915.21 939.16 2913.75 939.16ZM2936.61 955.252C2934.62 955.252 2932.83 954.832 2931.24 953.992C2929.66 953.152 2928.42 951.988 2927.54 950.5C2926.65 948.988 2926.2 947.284 2926.2 945.388C2926.2 943.492 2926.65 941.8 2927.54 940.312C2928.42 938.824 2929.65 937.66 2931.21 936.82C2932.79 935.98 2934.59 935.56 2936.61 935.56C2938.5 935.56 2940.16 935.944 2941.58 936.712C2943.02 937.48 2944.1 938.584 2944.82 940.024L2941.36 942.04C2940.81 941.152 2940.11 940.492 2939.27 940.06C2938.46 939.604 2937.56 939.376 2936.57 939.376C2934.89 939.376 2933.5 939.928 2932.4 941.032C2931.29 942.112 2930.74 943.564 2930.74 945.388C2930.74 947.212 2931.28 948.676 2932.36 949.78C2933.46 950.86 2934.87 951.4 2936.57 951.4C2937.56 951.4 2938.46 951.184 2939.27 950.752C2940.11 950.296 2940.81 949.624 2941.36 948.736L2944.82 950.752C2944.07 952.192 2942.98 953.308 2941.54 954.1C2940.12 954.868 2938.48 955.252 2936.61 955.252ZM2960.51 953.956C2959.98 954.388 2959.33 954.712 2958.56 954.928C2957.82 955.144 2957.03 955.252 2956.19 955.252C2954.08 955.252 2952.44 954.7 2951.29 953.596C2950.14 952.492 2949.56 950.884 2949.56 948.772V939.52H2946.4V935.92H2949.56V931.528H2954.06V935.92H2959.21V939.52H2954.06V948.664C2954.06 949.6 2954.29 950.32 2954.75 950.824C2955.2 951.304 2955.86 951.544 2956.73 951.544C2957.74 951.544 2958.58 951.28 2959.25 950.752L2960.51 953.956Z" fill="#FF6400"/>
</g>
<defs>
<filter id="filter0_d_1437_548" x="1764" y="337" width="364" height="167" filterUnits="userSpaceOnUse" color-interpolation-filters="sRGB">
<feFlood flood-opacity="0" result="BackgroundImageFix"/>
<feColorMatrix in="SourceAlpha" type="matrix" values="0 0 0 0 0 0 0 0 0 0 0 0 0 0 0 0 0 0 127 0" result="hardAlpha"/>
<feOffset dy="4"/>
<feGaussianBlur stdDeviation="20"/>
<feColorMatrix type="matrix" values="0 0 0 0 0.847059 0 0 0 0 0.847059 0 0 0 0 0.847059 0 0 0 0.25 0"/>
<feBlend mode="normal" in2="BackgroundImageFix" result="effect1_dropShadow_1437_548"/>
<feBlend mode="normal" in="SourceGraphic" in2="effect1_dropShadow_1437_548" result="shape"/>
</filter>
<filter id="filter1_d_1437_548" x="2273" y="336" width="320" height="167" filterUnits="userSpaceOnUse" color-interpolation-filters="sRGB">
<feFlood flood-opacity="0" result="BackgroundImageFix"/>
<feColorMatrix in="SourceAlpha" type="matrix" values="0 0 0 0 0 0 0 0 0 0 0 0 0 0 0 0 0 0 127 0" result="hardAlpha"/>
<feOffset dy="4"/>
<feGaussianBlur stdDeviation="20"/>
<feColorMatrix type="matrix" values="0 0 0 0 0.847059 0 0 0 0 0.847059 0 0 0 0 0.847059 0 0 0 0.25 0"/>
<feBlend mode="normal" in2="BackgroundImageFix" result="effect1_dropShadow_1437_548"/>
<feBlend mode="normal" in="SourceGraphic" in2="effect1_dropShadow_1437_548" result="shape"/>
</filter>
<filter id="filter2_d_1437_548" x="2293.99" y="366.367" width="278.474" height="106.064" filterUnits="userSpaceOnUse" color-interpolation-filters="sRGB">
<feFlood flood-opacity="0" result="BackgroundImageFix"/>
<feColorMatrix in="SourceAlpha" type="matrix" values="0 0 0 0 0 0 0 0 0 0 0 0 0 0 0 0 0 0 127 0" result="hardAlpha"/>
<feOffset dy="4"/>
<feGaussianBlur stdDeviation="20"/>
<feColorMatrix type="matrix" values="0 0 0 0 0 0 0 0 0 0 0 0 0 0 0 0 0 0 0.25 0"/>
<feBlend mode="normal" in2="BackgroundImageFix" result="effect1_dropShadow_1437_548"/>
<feBlend mode="normal" in="SourceGraphic" in2="effect1_dropShadow_1437_548" result="shape"/>
</filter>
<filter id="filter3_d_1437_548" x="2727" y="336" width="364" height="167" filterUnits="userSpaceOnUse" color-interpolation-filters="sRGB">
<feFlood flood-opacity="0" result="BackgroundImageFix"/>
<feColorMatrix in="SourceAlpha" type="matrix" values="0 0 0 0 0 0 0 0 0 0 0 0 0 0 0 0 0 0 127 0" result="hardAlpha"/>
<feOffset dy="4"/>
<feGaussianBlur stdDeviation="20"/>
<feColorMatrix type="matrix" values="0 0 0 0 0.847059 0 0 0 0 0.847059 0 0 0 0 0.847059 0 0 0 0.25 0"/>
<feBlend mode="normal" in2="BackgroundImageFix" result="effect1_dropShadow_1437_548"/>
<feBlend mode="normal" in="SourceGraphic" in2="effect1_dropShadow_1437_548" result="shape"/>
</filter>
<filter id="filter4_d_1437_548" x="2721" y="573" width="365" height="147" filterUnits="userSpaceOnUse" color-interpolation-filters="sRGB">
<feFlood flood-opacity="0" result="BackgroundImageFix"/>
<feColorMatrix in="SourceAlpha" type="matrix" values="0 0 0 0 0 0 0 0 0 0 0 0 0 0 0 0 0 0 127 0" result="hardAlpha"/>
<feOffset dy="4"/>
<feGaussianBlur stdDeviation="20"/>
<feColorMatrix type="matrix" values="0 0 0 0 0 0 0 0 0 0 0 0 0 0 0 0 0 0 0.25 0"/>
<feBlend mode="normal" in2="BackgroundImageFix" result="effect1_dropShadow_1437_548"/>
<feBlend mode="normal" in="SourceGraphic" in2="effect1_dropShadow_1437_548" result="shape"/>
</filter>
<clipPath id="clip0_1437_548">
<rect x="145" y="170" width="1440" height="2960" rx="28" fill="white"/>
</clipPath>
<clipPath id="clip1_1437_548">
<rect x="1681" y="170" width="1440" height="2960" rx="28" fill="white"/>
</clipPath>
</defs>
</svg>
